<svg width="35" height="35" viewBox="0 0 35 35" fill="none" xmlns="http://www.w3.org/2000/svg">
<path d="M7.38731 20.4893C6.86341 20.4893 6.43896 20.9144 6.43896 21.4384C6.43896 21.9623 6.86341 22.3875 7.38731 22.3875C7.91197 22.3875 8.33642 21.9623 8.33642 21.4384C8.33642 20.9144 7.91197 20.4893 7.38731 20.4893Z" fill="#303030"/>
<path d="M32.6266 13.2153L25.958 10.5427C24.8478 10.0975 23.6783 9.87207 22.4816 9.87207H18.394C16.9296 9.87207 15.4651 10.2228 14.1596 10.887L8.11727 13.9597L3.78273 14.5917C2.73205 14.7449 1.77146 15.2716 1.07652 16.0754C0.382197 16.8786 0 17.9057 0 18.9671V21.5252C0 21.9203 0.320674 22.2409 0.715723 22.2409H3.78629C3.94017 22.9373 4.29304 23.5743 4.81407 24.0825C5.50689 24.756 6.42093 25.1275 7.38787 25.1275C8.35413 25.1275 9.26816 24.756 9.96099 24.0825C10.4828 23.5736 10.8363 22.9351 10.9895 22.2409H23.8178C23.9717 22.9373 24.3246 23.5743 24.8464 24.0818C25.5385 24.756 26.4525 25.1275 27.4187 25.1275C28.3857 25.1275 29.2997 24.756 29.9919 24.0825C30.5136 23.5743 30.8665 22.9373 31.0204 22.2409H34.2842C34.6793 22.2409 34.9999 21.9202 34.9999 21.5252V16.7239C35 15.1707 34.0681 13.7937 32.6266 13.2153ZM25.4254 11.8712L30.5731 13.9347H26.6887L24.9788 11.708C25.1284 11.7581 25.2773 11.8125 25.4254 11.8712ZM19.0654 11.3036H22.4816C22.6119 11.3036 22.7415 11.3065 22.8702 11.3129L24.8836 13.9347H19.0654V11.3036ZM14.8081 12.1632C15.6877 11.7159 16.6519 11.4367 17.6338 11.3415V13.9347H11.3246L14.8081 12.1632ZM3.87864 16.0275C3.58449 17.0231 2.70628 17.7703 1.64268 17.872C2.01551 16.9365 2.85079 16.2172 3.87864 16.0275ZM7.38719 23.696C6.14038 23.696 5.12976 22.6854 5.12976 21.4386C5.12976 20.1918 6.14038 19.1812 7.38719 19.1812C8.63399 19.1812 9.64462 20.1918 9.64462 21.4386C9.64469 22.6854 8.63406 23.696 7.38719 23.696ZM27.4196 23.696C26.1728 23.696 25.1614 22.6854 25.1614 21.4386C25.1614 20.1918 26.1728 19.1812 27.4196 19.1812C28.6664 19.1812 29.677 20.1918 29.677 21.4386C29.677 22.6854 28.6664 23.696 27.4196 23.696ZM33.5685 20.8094H31.0533C30.7534 19.0745 29.2389 17.7496 27.4188 17.7496C25.5994 17.7496 24.0849 19.0745 23.785 20.8094H11.0225C10.7226 19.0745 9.20732 17.7496 7.38794 17.7496C5.5678 17.7496 4.0533 19.0745 3.75341 20.8094H1.43151V19.315C3.45926 19.2964 5.13263 17.7704 5.38241 15.8049L8.39214 15.3662H26.3359C26.3359 15.3662 26.3359 15.3662 26.3366 15.3662C26.3366 15.3662 26.3366 15.3662 26.3373 15.3662H30.8665V16.2981C30.8665 17.6079 31.9322 18.6736 33.2414 18.6736H33.5685V20.8094ZM33.5685 17.2422H33.2414C32.7217 17.2422 32.298 16.8185 32.298 16.2981V15.3663H33.1376C33.4117 15.7542 33.5685 16.2237 33.5685 16.724V17.2422Z" fill="#303030"/>
<path d="M27.4196 20.4893C26.8949 20.4893 26.4705 20.9144 26.4705 21.4384C26.4705 21.9623 26.8949 22.3875 27.4196 22.3875C27.9435 22.3875 28.3679 21.9623 28.3679 21.4384C28.3679 20.9144 27.9435 20.4893 27.4196 20.4893Z" fill="#303030"/>
<path d="M19.8378 17.3721H15.0905C14.6952 17.3721 14.3748 17.6925 14.3748 18.0878C14.3748 18.4831 14.6952 18.8035 15.0905 18.8035H19.8378C20.233 18.8035 20.5535 18.4831 20.5535 18.0878C20.5535 17.6925 20.233 17.3721 19.8378 17.3721Z" fill="#303030"/>
<path d="M7.38731 20.4893C6.86341 20.4893 6.43896 20.9144 6.43896 21.4384C6.43896 21.9623 6.86341 22.3875 7.38731 22.3875C7.91197 22.3875 8.33642 21.9623 8.33642 21.4384C8.33642 20.9144 7.91197 20.4893 7.38731 20.4893Z" fill="#303030"/>
<path d="M27.4196 20.4893C26.8949 20.4893 26.4705 20.9144 26.4705 21.4384C26.4705 21.9623 26.8949 22.3875 27.4196 22.3875C27.9435 22.3875 28.3679 21.9623 28.3679 21.4384C28.3679 20.9144 27.9435 20.4893 27.4196 20.4893Z" fill="#303030"/>
<path d="M7.38731 20.4893C6.86341 20.4893 6.43896 20.9144 6.43896 21.4384C6.43896 21.9623 6.86341 22.3875 7.38731 22.3875C7.91197 22.3875 8.33642 21.9623 8.33642 21.4384C8.33642 20.9144 7.91197 20.4893 7.38731 20.4893Z" fill="#303030"/>
<path d="M27.4196 20.4893C26.8949 20.4893 26.4705 20.9144 26.4705 21.4384C26.4705 21.9623 26.8949 22.3875 27.4196 22.3875C27.9435 22.3875 28.3679 21.9623 28.3679 21.4384C28.3679 20.9144 27.9435 20.4893 27.4196 20.4893Z" fill="#303030"/>
</svg>
