<svg width="24" height="14" viewBox="0 0 24 14" fill="none" xmlns="http://www.w3.org/2000/svg">
<path d="M21.0779 12.0207C21.2332 11.7389 21.3393 11.4266 21.3856 11.0954L23.9988 11.0957L23.9992 7.67688C23.9993 6.94751 23.7153 6.26172 23.1996 5.74596C22.6839 5.23014 21.9982 4.94608 21.2689 4.94599L20.6384 4.94589L18.5377 0.574424L7.40372 0.573158L4.68436 4.94407L2.73136 4.94383C2.73122 4.94383 2.73113 4.94383 2.73098 4.94383C2.0018 4.94383 1.31611 5.2278 0.800438 5.74338C0.284578 6.25896 0.00046875 6.94469 0.000421875 7.67402L0 11.0929L2.81423 11.0933C2.85942 11.4208 2.96372 11.7341 3.12173 12.0207H0.000890625V13.4269H24V12.0207H21.0779V12.0207ZM13.6763 1.98011L17.6531 1.98058L19.0781 4.94575L13.676 4.94514L13.6763 1.98011ZM8.1848 1.97941L12.2701 1.97988L12.2698 4.94496L6.34027 4.9443L8.1848 1.97941ZM5.49286 12.0166C5.49281 12.0166 5.49277 12.0166 5.49272 12.0166C5.14584 12.0166 4.81973 11.8815 4.57453 11.6362C4.32928 11.3909 4.19423 11.0647 4.19428 10.7179C4.19433 10.371 4.32947 10.045 4.57477 9.79971C4.82002 9.55446 5.14608 9.41946 5.49286 9.41946C5.49291 9.41946 5.49295 9.41946 5.493 9.41946C5.83992 9.41951 6.16598 9.5546 6.41123 9.79994C6.65648 10.0452 6.79153 10.3713 6.79148 10.7181C6.79139 11.4341 6.20883 12.0166 5.49286 12.0166ZM7.86234 12.0207C8.01811 11.7385 8.12461 11.4257 8.17097 11.0939L16.0294 11.0948C16.0756 11.4263 16.1818 11.7388 16.3372 12.0207H7.86234ZM18.7075 12.0181C18.7074 12.0181 18.7074 12.0181 18.7073 12.0181C18.3605 12.018 18.0344 11.8829 17.7892 11.6376C17.5439 11.3923 17.4089 11.0662 17.4089 10.7194C17.409 10.0034 17.9916 9.42087 18.7075 9.42087C18.7075 9.42087 18.7076 9.42087 18.7076 9.42087C19.4236 9.42096 20.0062 10.0036 20.0061 10.7196C20.006 11.4356 19.4235 12.0181 18.7075 12.0181ZM18.7078 8.01471C18.7076 8.01471 18.7077 8.01471 18.7075 8.01471C17.5811 8.01471 16.6136 8.70715 16.2074 9.68862L7.99514 9.68768C7.86094 9.36176 7.66233 9.06241 7.40559 8.80568C6.8948 8.29474 6.21553 8.01335 5.49309 8.01326C5.49295 8.01326 5.49286 8.01326 5.49272 8.01326C4.77042 8.01326 4.09125 8.29455 3.58036 8.80521C3.32362 9.06194 3.12492 9.36124 2.99067 9.68707L1.4063 9.68688L1.40653 7.6743C1.40658 7.32054 1.54434 6.98801 1.79452 6.73788C2.04464 6.4878 2.37717 6.35008 2.73089 6.35008C2.73094 6.35008 2.73098 6.35008 2.73103 6.35008L21.2686 6.35219C21.6224 6.35224 21.9549 6.49005 22.2051 6.74022C22.4552 6.9904 22.5929 7.32302 22.5929 7.67674L22.5927 9.68937L21.2078 9.68918C20.8019 8.70752 19.8344 8.01485 18.7078 8.01471Z" fill="white"/>
</svg>
