<svg width="22" height="17" viewBox="0 0 22 17" fill="none" xmlns="http://www.w3.org/2000/svg">
<path d="M21 4.24991H4.365L3.75 1.09991C3.71494 0.927952 3.62068 0.773735 3.48364 0.664104C3.3466 0.554473 3.17546 0.49637 3 0.499908H0V1.99991H2.385L5.25 16.3999C5.28506 16.5719 5.37932 16.7261 5.51636 16.8357C5.6534 16.9453 5.82454 17.0034 6 16.9999H19.5V15.4999H6.615L6 12.4999H19.5C19.6734 12.5041 19.8429 12.4482 19.9796 12.3415C20.1163 12.2348 20.2119 12.0841 20.25 11.9149L21.75 5.16491C21.7751 5.05363 21.7745 4.93808 21.7483 4.82706C21.722 4.71604 21.6708 4.61247 21.5985 4.52424C21.5261 4.436 21.4347 4.36543 21.3309 4.3179C21.2272 4.27036 21.114 4.24711 21 4.24991ZM18.9 10.9999H5.715L4.665 5.74991H20.0625L18.9 10.9999Z" fill="#303030"/>
</svg>
