<svg width="20" height="20" viewBox="0 0 20 20" fill="none" xmlns="http://www.w3.org/2000/svg">
<path d="M6.25 18.75C6.94036 18.75 7.5 18.1904 7.5 17.5C7.5 16.8096 6.94036 16.25 6.25 16.25C5.55964 16.25 5 16.8096 5 17.5C5 18.1904 5.55964 18.75 6.25 18.75Z" fill="white"/>
<path d="M15 18.75C15.6904 18.75 16.25 18.1904 16.25 17.5C16.25 16.8096 15.6904 16.25 15 16.25C14.3096 16.25 13.75 16.8096 13.75 17.5C13.75 18.1904 14.3096 18.75 15 18.75Z" fill="white"/>
<path d="M17.5 4.375H3.6375L3.125 1.75C3.09578 1.6067 3.01724 1.47819 2.90304 1.38683C2.78884 1.29547 2.64622 1.24705 2.5 1.25H0V2.5H1.9875L4.375 14.5C4.40422 14.6433 4.48276 14.7718 4.59696 14.8632C4.71116 14.9545 4.85378 15.003 5 15H16.25V13.75H5.5125L5 11.25H16.25C16.3945 11.2535 16.5357 11.2069 16.6497 11.118C16.7636 11.0291 16.8432 10.9035 16.875 10.7625L18.125 5.1375C18.1459 5.04477 18.1455 4.94848 18.1236 4.85596C18.1017 4.76344 18.059 4.67713 17.9987 4.60361C17.9385 4.53008 17.8622 4.47127 17.7758 4.43166C17.6894 4.39204 17.595 4.37267 17.5 4.375ZM15.75 10H4.7625L3.8875 5.625H16.7188L15.75 10Z" fill="white"/>
</svg>
