<svg width="28" height="28" viewBox="0 0 28 28" fill="none" xmlns="http://www.w3.org/2000/svg">
<path d="M14 0C6.2804 0 0 6.2804 0 14C0 21.7196 6.2804 28 14 28C21.7196 28 28 21.7196 28 14C28 6.2804 21.7196 0 14 0ZM14 25.4545C7.68388 25.4545 2.54545 20.316 2.54545 14C2.54545 7.68396 7.68388 2.54545 14 2.54545C20.3161 2.54545 25.4545 7.68396 25.4545 14C25.4545 20.316 20.316 25.4545 14 25.4545Z" fill="#303030"/>
<path d="M19.2493 9.05047L12.0496 16.2501L8.74982 12.9503C8.25286 12.4533 7.44697 12.4532 6.94993 12.9502C6.45289 13.4472 6.45289 14.253 6.94993 14.7501L11.1496 18.9499C11.3883 19.1886 11.712 19.3227 12.0495 19.3227C12.0496 19.3227 12.0495 19.3227 12.0496 19.3227C12.3871 19.3227 12.7108 19.1886 12.9495 18.95L21.0492 10.8504C21.5463 10.3534 21.5463 9.5476 21.0492 9.05056C20.5522 8.55352 19.7464 8.55343 19.2493 9.05047Z" fill="#303030"/>
</svg>
