<svg width="24" height="24" viewBox="0 0 24 24" fill="#303030" xmlns="http://www.w3.org/2000/svg">
<g clip-path="url(#clip0)">
<path d="M23.986 10.8924L23.3047 4.84662C23.1769 3.71356 22.2209 2.85937 21.0809 2.85937H20.375V20.9085H21.7867V13.3808C22.4142 13.374 23.0123 13.1027 23.431 12.6343C23.8551 12.1597 24.0574 11.5248 23.986 10.8924ZM22.3784 11.6935C22.2249 11.8652 22.0156 11.9625 21.7867 11.9689V4.66736C21.8475 4.76733 21.888 4.88159 21.9019 5.00464L22.5833 11.0506C22.61 11.2874 22.5371 11.5159 22.3784 11.6935Z" fill="#303030"/>
<path d="M5.51899 7.30096V3.05182H4.10724V7.30096C4.10724 7.67303 3.82618 7.9801 3.46527 8.0224V3.05182H2.05353V8.0224C1.69281 7.9801 1.41174 7.67303 1.41174 7.30096V3.05182H0V7.30096C0 8.45178 0.913697 9.39258 2.05371 9.43726V20.9085H3.46546V9.43726C4.60529 9.39258 5.51899 8.45178 5.51899 7.30096Z" fill="#303030"/>
<path d="M11.9841 6.13403C7.82575 6.13403 4.44287 9.51709 4.44287 13.6752C4.44287 17.8336 7.82575 21.2166 11.9841 21.2166C16.1422 21.2166 19.5253 17.8336 19.5253 13.6752C19.5253 9.51709 16.1422 6.13403 11.9841 6.13403ZM11.9841 19.8049C8.60431 19.8049 5.85462 17.0552 5.85462 13.6752C5.85462 10.2955 8.60431 7.54578 11.9841 7.54578C15.3638 7.54578 18.1135 10.2955 18.1135 13.6752C18.1135 17.0552 15.3638 19.8049 11.9841 19.8049Z" fill="#303030"/>
<path d="M12.0593 11.3011L11.9843 11.3762L11.9092 11.3011C11.0312 10.4233 9.6028 10.4231 8.72499 11.3011C7.84718 12.1789 7.84718 13.6073 8.72316 14.4835L11.9726 17.7561L15.2436 14.4851C16.1214 13.6073 16.1214 12.1789 15.2436 11.3009C14.3656 10.4231 12.9373 10.4231 12.0593 11.3011ZM14.2453 13.487L11.9762 15.756L9.7231 13.487C9.39571 13.1596 9.39571 12.6268 9.7231 12.2994C9.88698 12.1355 10.1019 12.0537 10.3171 12.0537C10.5321 12.0537 10.7472 12.1355 10.9109 12.2994L11.9843 13.3727L13.0576 12.2994C13.385 11.9718 13.9179 11.9718 14.2453 12.2994C14.5728 12.6268 14.5728 13.1594 14.2453 13.487Z" fill="#303030"/>
</g>
<defs>
<clipPath id="clip0">
<rect width="24" height="24" fill="#303030"/>
</clipPath>
</defs>
</svg>
