<svg width="26" height="28" viewBox="0 0 26 28" fill="none" xmlns="http://www.w3.org/2000/svg">
<path d="M3.17228 0.290527H15.9446C16.6973 0.290527 17.4193 0.589561 17.9516 1.12184C18.4838 1.65413 18.7829 2.37606 18.7829 3.12882V4.54797C18.7829 4.92435 18.6334 5.28531 18.3672 5.55145C18.1011 5.81759 17.7401 5.96711 17.3637 5.96711C16.9874 5.96711 16.6264 5.81759 16.3602 5.55145C16.0941 5.28531 15.9446 4.92435 15.9446 4.54797V3.12882H3.17228V25.8352H15.9446V24.416C15.9446 24.0396 16.0941 23.6787 16.3602 23.4125C16.6264 23.1464 16.9874 22.9969 17.3637 22.9969C17.7401 22.9969 18.1011 23.1464 18.3672 23.4125C18.6334 23.6787 18.7829 24.0396 18.7829 24.416V25.8352C18.7829 26.5879 18.4838 27.3098 17.9516 27.8421C17.4193 28.3744 16.6973 28.6734 15.9446 28.6734H3.17228C2.41951 28.6734 1.69758 28.3744 1.1653 27.8421C0.633018 27.3098 0.333984 26.5879 0.333984 25.8352V3.12882C0.333984 2.37606 0.633018 1.65413 1.1653 1.12184C1.69758 0.589561 2.41951 0.290527 3.17228 0.290527Z" fill="#303030"/>
<path d="M18.491 20.5771C19.0444 21.1306 19.9385 21.1306 20.492 20.5771L25.5838 15.4852C25.8499 15.2191 25.9994 14.8582 25.9994 14.4819C25.9994 14.1056 25.8499 13.7447 25.5838 13.4785L20.492 8.38663C20.2222 8.14281 19.8691 8.01197 19.5055 8.02114C19.142 8.03032 18.796 8.17881 18.5388 8.43593C18.2817 8.69305 18.1332 9.03914 18.124 9.40264C18.1149 9.76615 18.2457 10.1193 18.4895 10.389L21.1519 13.0627H8.84786C8.47148 13.0627 8.11051 13.2122 7.84437 13.4784C7.57823 13.7445 7.42871 14.1055 7.42871 14.4819C7.42871 14.8582 7.57823 15.2192 7.84437 15.4854C8.11051 15.7515 8.47148 15.901 8.84786 15.901H21.1519L18.4895 18.5747C18.2246 18.8406 18.076 19.2008 18.0763 19.5762C18.0765 19.9516 18.2257 20.3115 18.491 20.5771Z" fill="#303030"/>
</svg>
