<svg width="24" height="22" viewBox="0 0 24 22" fill="none" xmlns="http://www.w3.org/2000/svg">
<path d="M0.761719 4.75458C1.12823 3.90594 1.65672 3.1369 2.31758 2.49052C2.97894 1.84222 3.7587 1.32702 4.61445 0.972944C5.50182 0.604331 6.45357 0.415654 7.41445 0.417866C8.7625 0.417866 10.0777 0.787006 11.2207 1.48427C11.4941 1.65107 11.7539 1.83427 12 2.03388C12.2461 1.83427 12.5059 1.65107 12.7793 1.48427C13.9223 0.787006 15.2375 0.417866 16.5855 0.417866C17.5563 0.417866 18.4969 0.603804 19.3855 0.972944C20.2441 1.32841 21.018 1.83974 21.6824 2.49052C22.3441 3.13617 22.8728 3.90539 23.2383 4.75458C23.6184 5.63779 23.8125 6.57568 23.8125 7.54091C23.8125 8.45146 23.6266 9.40029 23.2574 10.3655C22.9484 11.1722 22.5055 12.0089 21.9395 12.8538C21.0426 14.1909 19.8094 15.5854 18.2781 16.9991C15.7406 19.3425 13.2277 20.9612 13.1211 21.0269L12.473 21.4425C12.1859 21.6257 11.8168 21.6257 11.5297 21.4425L10.8816 21.0269C10.775 20.9585 8.26484 19.3425 5.72461 16.9991C4.19336 15.5854 2.96016 14.1909 2.06328 12.8538C1.49726 12.0089 1.05156 11.1722 0.745314 10.3655C0.376173 9.40029 0.190233 8.45146 0.190233 7.54091C0.1875 6.57568 0.381641 5.63779 0.761719 4.75458ZM12 19.2796C12 19.2796 21.7344 13.0425 21.7344 7.54091C21.7344 4.75458 19.4293 2.49599 16.5855 2.49599C14.5867 2.49599 12.8531 3.61162 12 5.2413C11.1469 3.61162 9.41328 2.49599 7.41445 2.49599C4.5707 2.49599 2.26562 4.75458 2.26562 7.54091C2.26562 13.0425 12 19.2796 12 19.2796Z" fill="#303030"/>
</svg>
