<svg width="20" height="20" viewBox="0 0 20 20" fill="none" xmlns="http://www.w3.org/2000/svg">
<path d="M13.7194 0.740742H6.2472C4.78716 0.742458 3.38742 1.32328 2.3551 2.35577C1.32278 3.38827 0.742193 4.78811 0.740723 6.24815L0.740723 13.7204C0.742438 15.1804 1.32326 16.5802 2.35576 17.6125C3.38825 18.6448 4.78809 19.2254 6.24813 19.2269H13.7204C15.1804 19.2251 16.5801 18.6443 17.6125 17.6118C18.6448 16.5793 19.2254 15.1795 19.2268 13.7194V6.24722C19.2251 4.78718 18.6443 3.38744 17.6118 2.35512C16.5793 1.3228 15.1795 0.742212 13.7194 0.740742V0.740742ZM17.3676 13.7194C17.3676 14.1985 17.2732 14.6729 17.0899 15.1155C16.9065 15.5581 16.6378 15.9603 16.2991 16.2991C15.9603 16.6378 15.5581 16.9066 15.1155 17.0899C14.6729 17.2732 14.1985 17.3676 13.7194 17.3676H6.2472C5.27981 17.3673 4.35213 16.9829 3.66817 16.2987C2.98421 15.6146 2.59998 14.6868 2.59998 13.7194V6.24722C2.60023 5.27983 2.98469 4.35215 3.66883 3.66819C4.35296 2.98423 5.28074 2.6 6.24813 2.6H13.7204C14.6877 2.60025 15.6154 2.98471 16.2994 3.66885C16.9833 4.35298 17.3676 5.28076 17.3676 6.24815V13.7204V13.7194Z" fill="white"/>
<path d="M9.9833 5.20278C8.71611 5.20474 7.50139 5.70906 6.60543 6.60519C5.70948 7.50132 5.20539 8.71614 5.20367 9.98334C5.20514 11.2509 5.70925 12.466 6.60543 13.3624C7.50162 14.2588 8.71671 14.7631 9.98423 14.7648C11.2519 14.7633 12.4672 14.2591 13.3636 13.3627C14.26 12.4663 14.7642 11.251 14.7657 9.98334C14.7638 8.71582 14.2592 7.50082 13.3626 6.60481C12.4661 5.7088 11.2508 5.20493 9.9833 5.20371V5.20278ZM9.9833 12.9056C9.20853 12.9056 8.46549 12.5978 7.91764 12.0499C7.36979 11.5021 7.06201 10.759 7.06201 9.98426C7.06201 9.20949 7.36979 8.46644 7.91764 7.91859C8.46549 7.37075 9.20853 7.06297 9.9833 7.06297C10.7581 7.06297 11.5011 7.37075 12.049 7.91859C12.5968 8.46644 12.9046 9.20949 12.9046 9.98426C12.9046 10.759 12.5968 11.5021 12.049 12.0499C11.5011 12.5978 10.7581 12.9056 9.9833 12.9056Z" fill="white"/>
<path d="M14.7741 6.38426C15.4066 6.38426 15.9194 5.87146 15.9194 5.23889C15.9194 4.60632 15.4066 4.09352 14.7741 4.09352C14.1415 4.09352 13.6287 4.60632 13.6287 5.23889C13.6287 5.87146 14.1415 6.38426 14.7741 6.38426Z" fill="white"/>
</svg>
