<svg width="18" height="18" viewBox="0 0 18 18" fill="none" xmlns="http://www.w3.org/2000/svg">
<path d="M12.3475 0.666748H5.62246C4.30842 0.668292 3.04866 1.19103 2.11957 2.12028C1.19048 3.04952 0.667949 4.30937 0.666626 5.62341L0.666626 12.3484C0.66817 13.6625 1.19091 14.9222 2.12016 15.8513C3.0494 16.7804 4.30925 17.3029 5.62329 17.3042H12.3483C13.6623 17.3027 14.9221 16.78 15.8512 15.8507C16.7803 14.9215 17.3028 13.6616 17.3041 12.3476V5.62258C17.3026 4.30854 16.7798 3.04878 15.8506 2.11969C14.9213 1.1906 13.6615 0.668071 12.3475 0.666748V0.666748ZM15.6308 12.3476C15.6308 12.7788 15.5459 13.2057 15.3809 13.6041C15.2159 14.0024 14.974 14.3644 14.6691 14.6692C14.3642 14.9741 14.0023 15.216 13.6039 15.381C13.2056 15.546 12.7786 15.6309 12.3475 15.6309H5.62246C4.75181 15.6307 3.91689 15.2847 3.30133 14.669C2.68577 14.0532 2.33996 13.2182 2.33996 12.3476V5.62258C2.34018 4.75193 2.6862 3.91702 3.30192 3.30145C3.91764 2.68589 4.75264 2.34008 5.62329 2.34008H12.3483C13.2189 2.3403 14.0539 2.68632 14.6694 3.30204C15.285 3.91776 15.6308 4.75276 15.6308 5.62341V12.3484V12.3476Z" fill="#303030"/>
<path d="M8.98502 4.68262C7.84454 4.68438 6.75129 5.13827 5.94493 5.94479C5.13857 6.75131 4.68489 7.84464 4.68335 8.98512C4.68467 10.1259 5.13837 11.2196 5.94493 12.0263C6.7515 12.833 7.84509 13.2869 8.98585 13.2885C10.1268 13.2871 11.2206 12.8333 12.0273 12.0266C12.8341 11.2198 13.2879 10.126 13.2892 8.98512C13.2874 7.84435 12.8333 6.75085 12.0264 5.94445C11.2195 5.13804 10.1258 4.68455 8.98502 4.68345V4.68262ZM8.98502 11.6151C8.28772 11.6151 7.61898 11.3381 7.12592 10.8451C6.63285 10.352 6.35585 9.68325 6.35585 8.98595C6.35585 8.28865 6.63285 7.61991 7.12592 7.12685C7.61898 6.63379 8.28772 6.35678 8.98502 6.35678C9.68232 6.35678 10.3511 6.63379 10.8441 7.12685C11.3372 7.61991 11.6142 8.28865 11.6142 8.98595C11.6142 9.68325 11.3372 10.352 10.8441 10.8451C10.3511 11.3381 9.68232 11.6151 8.98502 11.6151Z" fill="#303030"/>
<path d="M13.2966 5.74599C13.8659 5.74599 14.3274 5.28447 14.3274 4.71516C14.3274 4.14585 13.8659 3.68433 13.2966 3.68433C12.7273 3.68433 12.2657 4.14585 12.2657 4.71516C12.2657 5.28447 12.7273 5.74599 13.2966 5.74599Z" fill="#303030"/>
</svg>
