<svg width="116" height="30" viewBox="0 0 116 30" fill="none" xmlns="http://www.w3.org/2000/svg">
<path d="M41.2784 0.118757C42.0067 0.118757 42.7204 0.169231 43.4194 0.271542C44.1185 0.373854 44.7957 0.519818 45.4516 0.710117L44.9271 3.60758C44.3588 3.48481 43.8132 3.39682 43.2887 3.34157C42.7635 3.28769 42.2901 3.2604 41.8686 3.2604C41.2711 3.2604 40.7357 3.33134 40.2623 3.47457C39.7882 3.61713 39.385 3.85176 39.0497 4.17848C38.7145 4.50519 38.4559 4.92603 38.2747 5.44305C38.0921 5.96006 38.0015 6.59234 38.0015 7.34058C38.0015 8.14339 38.0811 8.81319 38.2418 9.34998C38.4025 9.88746 38.6465 10.3192 38.9738 10.6452C39.301 10.9713 39.7167 11.2066 40.2192 11.3491C40.7218 11.4917 41.3149 11.5633 42.0001 11.5633C42.1747 11.5633 42.4004 11.5531 42.6773 11.5326C42.9541 11.5122 43.2565 11.4822 43.5845 11.4412C43.9125 11.3996 44.2434 11.3566 44.5787 11.3082C44.9133 11.2605 45.2201 11.2032 45.4969 11.135L46.1521 13.9097C45.4093 14.1682 44.5751 14.3687 43.651 14.5113C42.7255 14.6538 41.8489 14.7254 41.0184 14.7254C39.4888 14.7254 38.236 14.5317 37.2601 14.1443C36.2842 13.7569 35.5128 13.233 34.9445 12.5735C34.7845 12.3879 34.6384 12.1942 34.5062 11.9923L0.409058 10.2674L33.4821 8.59424C33.4718 8.47624 33.4631 8.35756 33.4565 8.2382L11.0236 6.6285L33.7596 4.9956L33.7867 4.89125C33.8188 4.77052 33.8539 4.65115 33.8926 4.53384L19.866 2.98893L36.3769 1.34172C36.7005 1.13505 37.0533 0.94748 37.4354 0.779007C38.4405 0.337704 39.7218 0.116711 41.2806 0.116711L41.2784 0.118757ZM114.572 23.3776H115.809C115.835 23.7009 115.862 24.0269 115.888 24.3557C115.915 24.6844 115.942 25.0173 115.968 25.3522C115.596 25.5138 115.151 25.6441 114.631 25.7437C114.113 25.8426 113.574 25.8924 113.015 25.8924C112.563 25.8924 112.167 25.8208 111.828 25.6782C111.49 25.5357 111.28 25.2471 111.2 24.812C111.2 24.8242 111.18 24.812 111.14 24.7745C110.82 25.048 110.488 25.2587 110.142 25.4081C109.796 25.5568 109.466 25.6687 109.154 25.743C108.842 25.8174 108.562 25.861 108.316 25.8733C108.07 25.8856 107.881 25.8917 107.748 25.8917C107.096 25.8917 106.564 25.8017 106.152 25.6216C105.739 25.4415 105.413 25.2151 105.174 24.9416C104.934 24.6687 104.768 24.3734 104.675 24.0562C104.582 23.7397 104.535 23.4451 104.535 23.1716C104.535 22.8612 104.582 22.5604 104.675 22.2678C104.768 21.9766 104.924 21.7065 105.144 21.4575C105.363 21.2092 105.649 20.9985 106.001 20.8239C106.354 20.6499 106.783 20.5258 107.289 20.4515C107.794 20.3648 108.379 20.3028 109.045 20.2652C109.709 20.2277 110.348 20.1786 110.96 20.1166V19.9672C110.96 19.5702 110.844 19.2721 110.611 19.073C110.378 18.8745 109.956 18.7749 109.344 18.7749C109.105 18.7749 108.845 18.7845 108.566 18.8029C108.287 18.8213 108.007 18.8493 107.728 18.8868C107.449 18.9236 107.173 18.97 106.901 19.0266C106.627 19.0825 106.385 19.1412 106.172 19.2039L105.614 17.0431C105.906 16.9313 106.245 16.8262 106.631 16.7266C107.017 16.6277 107.412 16.5438 107.818 16.4756C108.224 16.4074 108.636 16.3549 109.055 16.3174C109.474 16.2799 109.876 16.2615 110.262 16.2615C110.901 16.2615 111.485 16.3174 112.018 16.4293C112.549 16.5411 113.005 16.7273 113.384 16.9879C113.763 17.2484 114.056 17.5901 114.262 18.0124C114.468 18.4346 114.571 18.9563 114.571 19.577V23.3769L114.572 23.3776ZM110.941 21.7576C110.648 21.7951 110.356 21.8224 110.064 21.8415C109.771 21.8606 109.505 21.8975 109.265 21.9534C109.026 22.0093 108.833 22.0994 108.687 22.2235C108.541 22.3476 108.468 22.5345 108.468 22.7828C108.494 23.1177 108.581 23.3598 108.727 23.5085C108.873 23.6579 109.113 23.7322 109.445 23.7322C109.644 23.7322 109.89 23.6886 110.183 23.602C110.476 23.5153 110.728 23.3851 110.941 23.2111V21.7583V21.7576ZM100.746 20.8259C101.305 20.9753 101.704 21.1929 101.944 21.478C102.183 21.7638 102.375 22.0925 102.522 22.4649C102.562 22.602 102.635 22.8189 102.741 23.117C102.848 23.4151 102.958 23.7316 103.071 24.0671C103.183 24.4027 103.293 24.7185 103.399 25.0173C103.506 25.3153 103.579 25.5329 103.619 25.6693H99.8282C99.788 25.5575 99.7289 25.3781 99.6485 25.1291C99.5689 24.8809 99.4856 24.6203 99.3994 24.3468C99.3125 24.074 99.2263 23.8134 99.1401 23.5645C99.0532 23.3162 98.9903 23.13 98.9502 23.0058C98.777 22.5345 98.5543 22.2269 98.2818 22.0837C98.0093 21.9411 97.6601 21.8695 97.2343 21.8695H96.2175V25.6693H92.4665V16.4674H96.2175V19.8021H97.1751C97.5608 19.8021 97.8903 19.7182 98.1627 19.5504C98.4352 19.3826 98.6383 19.0941 98.7712 18.6842C98.8114 18.5846 98.8647 18.4332 98.9312 18.2279C98.9977 18.0233 99.0707 17.8057 99.1503 17.5758C99.2299 17.346 99.303 17.1284 99.3695 16.9238C99.4359 16.7191 99.4827 16.567 99.5097 16.4674H103.081C103.054 16.5793 103.004 16.7594 102.931 17.0077C102.858 17.2559 102.778 17.5199 102.691 17.7995C102.605 18.0785 102.525 18.3432 102.452 18.5914C102.379 18.8404 102.323 19.0198 102.283 19.1316C102.176 19.4918 101.993 19.8205 101.734 20.1193C101.475 20.4174 101.145 20.6349 100.746 20.7714V20.8273V20.8259ZM89.256 20.7332C89.6147 20.845 89.904 20.991 90.1238 21.171C90.343 21.3511 90.5125 21.5441 90.6322 21.7488C90.752 21.9534 90.8324 22.1621 90.8718 22.3722C90.912 22.5836 90.9317 22.7821 90.9317 22.969C90.9317 23.825 90.6023 24.49 89.9441 24.962C89.286 25.4333 88.4313 25.6693 87.3809 25.6693H80.4582V16.4674H87.3612C88.3188 16.4674 89.0895 16.6632 89.6753 17.054C90.2604 17.4455 90.5534 18.0383 90.5534 18.8329C90.5534 19.1432 90.4635 19.4727 90.2838 19.8205C90.1041 20.1684 89.7622 20.448 89.2568 20.6588V20.7332H89.256ZM84.2888 18.5723V20.062H85.9316C86.1683 20.062 86.367 20.0061 86.5255 19.8922C86.6833 19.7789 86.7629 19.5961 86.7629 19.3451C86.7629 19.1187 86.6833 18.9338 86.5255 18.7886C86.367 18.644 86.1559 18.5717 85.8922 18.5717H84.2895L84.2888 18.5723ZM84.2888 21.8879V23.5269H86.012C86.3546 23.5269 86.6088 23.4492 86.7746 23.2944C86.9397 23.1388 87.0222 22.9376 87.0222 22.6887C87.0222 22.4527 86.9492 22.2603 86.8038 22.1116C86.6585 21.9629 86.4013 21.8879 86.0317 21.8879H84.2888ZM77.7657 23.3776H79.0023C79.0286 23.7009 79.0557 24.0269 79.082 24.3557C79.1083 24.6844 79.1353 25.0173 79.1616 25.3522C78.7891 25.5138 78.3442 25.6441 77.8248 25.7437C77.3062 25.8426 76.7671 25.8924 76.209 25.8924C75.7568 25.8924 75.3609 25.8208 75.022 25.6782C74.6831 25.5357 74.4734 25.2471 74.3931 24.812C74.3931 24.8242 74.3733 24.812 74.3332 24.7745C74.0139 25.048 73.6808 25.2587 73.3353 25.4081C72.9898 25.5568 72.6604 25.6687 72.3477 25.743C72.0351 25.8174 71.756 25.861 71.5099 25.8733C71.263 25.8856 71.0738 25.8917 70.9408 25.8917C70.2885 25.8917 69.7567 25.8017 69.3455 25.6216C68.9328 25.4415 68.607 25.2151 68.3674 24.9416C68.1285 24.6687 67.962 24.3734 67.8692 24.0562C67.7764 23.7397 67.7297 23.4451 67.7297 23.1716C67.7297 22.8612 67.7764 22.5604 67.8692 22.2678C67.962 21.9766 68.1183 21.7065 68.3381 21.4575C68.5573 21.2092 68.8436 20.9985 69.1957 20.8239C69.5478 20.6499 69.9773 20.5258 70.4828 20.4515C70.9883 20.3648 71.5734 20.3028 72.2389 20.2652C72.9036 20.2277 73.542 20.1786 74.1542 20.1166V19.9672C74.1542 19.5702 74.038 19.2721 73.805 19.073C73.5727 18.8745 73.1498 18.7749 72.5384 18.7749C72.2995 18.7749 72.0395 18.7845 71.7597 18.8029C71.4807 18.8213 71.2009 18.8493 70.9218 18.8868C70.6428 18.9236 70.3659 18.97 70.0935 19.0266C69.8203 19.0825 69.5778 19.1412 69.3652 19.2039L68.8064 17.0431C69.0986 16.9313 69.4382 16.8262 69.8239 16.7266C70.2096 16.6277 70.6048 16.5438 71.011 16.4756C71.4164 16.4074 71.8291 16.3549 72.2477 16.3174C72.6669 16.2799 73.0687 16.2615 73.4544 16.2615C74.0936 16.2615 74.6779 16.3174 75.2097 16.4293C75.7415 16.5411 76.1973 16.7273 76.5764 16.9879C76.9556 17.2484 77.2477 17.5901 77.4537 18.0124C77.6597 18.4346 77.7635 18.9563 77.7635 19.577V23.3769L77.7657 23.3776ZM74.1345 21.7576C73.8415 21.7951 73.5494 21.8224 73.2572 21.8415C72.9642 21.8606 72.6983 21.8975 72.4588 21.9534C72.2192 22.0093 72.0263 22.0994 71.8802 22.2235C71.7334 22.3476 71.6611 22.5345 71.6611 22.7828C71.6874 23.1177 71.7743 23.3598 71.9204 23.5085C72.0665 23.6579 72.3061 23.7322 72.6385 23.7322C72.8379 23.7322 73.084 23.6886 73.377 23.602C73.6692 23.5153 73.9219 23.3851 74.1345 23.2111V21.7583V21.7576ZM60.5491 18.777H57.278V16.4484H67.672V18.777H64.4002L64.3804 25.6693H60.5695L60.5498 18.777H60.5491ZM51.4722 21.0872C51.4722 21.7951 51.6154 22.3135 51.901 22.6423C52.1866 22.9717 52.7016 23.1354 53.4467 23.1354C53.8718 23.1354 54.2977 23.0986 54.7235 23.0236C55.1494 22.9492 55.5548 22.8626 55.9405 22.763C56.0464 23.1607 56.1531 23.5549 56.2597 23.9457C56.3664 24.3372 56.4723 24.7315 56.579 25.1291C56.0201 25.3774 55.3949 25.5602 54.7031 25.6782C54.0113 25.7962 53.3203 25.8555 52.6285 25.8555C51.5913 25.8555 50.7461 25.728 50.0945 25.4736C49.4429 25.2192 48.9309 24.8747 48.5583 24.4396C48.1858 24.0051 47.9338 23.5051 47.8008 22.9397C47.6679 22.3749 47.6007 21.7815 47.6007 21.1608C47.6007 20.577 47.6745 19.9938 47.8206 19.4099C47.9667 18.8261 48.2296 18.3016 48.6087 17.8357C48.9871 17.3705 49.5123 16.9913 50.1844 16.6994C50.8557 16.4081 51.7176 16.2615 52.7681 16.2615C53.1801 16.2615 53.676 16.2894 54.2546 16.3454C54.8324 16.4013 55.4212 16.5159 56.0194 16.6898L55.541 19.1487C55.1553 19.0743 54.79 19.0246 54.4438 19C54.0983 18.9754 53.7922 18.9625 53.5263 18.9625C52.8214 18.9625 52.3028 19.1466 51.9704 19.5122C51.638 19.8792 51.4722 20.4037 51.4722 21.0865V21.0872ZM46.3055 21.0496C46.3055 21.7201 46.2055 22.3504 46.0061 22.9404C45.8066 23.531 45.4874 24.0392 45.0484 24.4682C44.6101 24.8965 44.0411 25.2349 43.3427 25.4831C42.6444 25.7314 41.7971 25.8562 40.7992 25.8562C39.8014 25.8562 38.957 25.7355 38.2652 25.4927C37.5735 25.2505 37.0146 24.9156 36.5895 24.4866C36.1636 24.0583 35.8539 23.5522 35.6618 22.969C35.4689 22.3851 35.3725 21.7522 35.3725 21.0687C35.3725 20.386 35.4726 19.753 35.6713 19.1692C35.8707 18.5853 36.1907 18.0792 36.6289 17.6515C37.068 17.2232 37.6363 16.8842 38.3353 16.6359C39.0337 16.3876 39.8744 16.2635 40.8591 16.2635C41.8562 16.2635 42.7007 16.3876 43.3924 16.6359C44.0842 16.8842 44.6459 17.2232 45.0784 17.6515C45.5101 18.0799 45.8234 18.586 46.0163 19.1692C46.2091 19.753 46.3055 20.3798 46.3055 21.0503V21.0496ZM42.3756 21.0681C42.3756 20.7332 42.3559 20.4228 42.3157 20.137C42.2755 19.8519 42.1996 19.5995 42.0863 19.3826C41.9731 19.1657 41.8168 18.9979 41.6174 18.88C41.4179 18.762 41.1652 18.7026 40.8599 18.7026C40.5538 18.7026 40.2981 18.7681 40.0921 18.8984C39.8854 19.0286 39.7225 19.2026 39.6027 19.4202C39.4829 19.6377 39.3996 19.8887 39.3536 20.1745C39.3069 20.4603 39.2842 20.7584 39.2842 21.0687C39.2842 21.4296 39.3039 21.7556 39.3441 22.0468C39.3843 22.3388 39.4639 22.587 39.5837 22.7923C39.7035 22.997 39.8664 23.1552 40.0724 23.2671C40.2784 23.3789 40.5414 23.4349 40.8606 23.4349C41.1659 23.4349 41.415 23.3762 41.6086 23.2575C41.8014 23.1395 41.9541 22.9785 42.0673 22.7739C42.1806 22.5686 42.2602 22.3203 42.3069 22.0284C42.3537 21.7372 42.3771 21.4173 42.3771 21.0687L42.3756 21.0681ZM21.9873 25.6693V29.0784H18.9741V23.2105L20.3905 23.1545C20.8025 22.733 21.1385 22.2576 21.3978 21.7297C21.6571 21.2024 21.8668 20.6308 22.026 20.0163C22.1853 19.4011 22.3051 18.7469 22.3854 18.0505C22.465 17.3555 22.5381 16.6161 22.6045 15.8338L22.8441 12.8163H32.6391V23.1545L34.0957 23.2105V29.0784H31.0832V25.6693H21.9866H21.9873ZM26.0568 16.374C25.9772 17.1939 25.9005 17.936 25.8274 18.6003C25.7544 19.2646 25.6579 19.8703 25.5381 20.4167C25.4183 20.963 25.262 21.4596 25.0692 21.9063C24.8763 22.3538 24.6199 22.7698 24.3007 23.1545H28.75V15.2752H26.1561L26.0568 16.374ZM102.935 10.1562C102.615 10.0743 102.345 9.94543 102.127 9.76877C101.909 9.59212 101.73 9.39091 101.592 9.1665C101.453 8.9421 101.355 8.70133 101.297 8.44282C101.239 8.18431 101.21 7.93263 101.21 7.68776C101.21 7.30716 101.279 6.91974 101.417 6.52482C101.555 6.13058 101.789 5.77317 102.116 5.45328C102.443 5.13407 102.884 4.87556 103.438 4.67776C103.991 4.48064 104.684 4.38242 105.513 4.38242H112.461V14.501H108.31V10.7469H107.261C106.839 10.7469 106.496 10.8287 106.234 10.9917C105.972 11.1548 105.754 11.4746 105.579 11.9501L104.618 14.5003H100.401L101.384 11.9296C101.501 11.5899 101.668 11.2564 101.887 10.9297C102.105 10.603 102.462 10.3656 102.958 10.2155L102.936 10.1541L102.935 10.1562ZM105.404 7.59568C105.404 8.00765 105.542 8.30231 105.819 8.48101C106.096 8.65972 106.416 8.74907 106.78 8.74907H108.31V6.46412H106.78C106.358 6.46412 106.023 6.5637 105.775 6.76287C105.527 6.96203 105.404 7.24032 105.404 7.59636V7.59568ZM98.0195 11.9923H99.3738C99.4031 12.3463 99.4323 12.7031 99.4615 13.0632C99.49 13.424 99.5199 13.7876 99.5492 14.1545C99.1408 14.3312 98.6529 14.4744 98.0853 14.5829C97.517 14.6913 96.9268 14.7459 96.3153 14.7459C95.8201 14.7459 95.3869 14.6674 95.0151 14.5113C94.6433 14.3551 94.4139 14.0393 94.3263 13.5632C94.3263 13.5768 94.3043 13.5632 94.2612 13.5222C93.9113 13.8217 93.5468 14.0529 93.1685 14.2159C92.7893 14.3796 92.4292 14.5017 92.0866 14.5836C91.744 14.6647 91.438 14.7125 91.1691 14.7261C90.8996 14.7397 90.6921 14.7466 90.5468 14.7466C89.8324 14.7466 89.2502 14.6477 88.7988 14.4505C88.3473 14.2534 87.9901 14.0052 87.7279 13.7057C87.4656 13.407 87.2837 13.083 87.1822 12.7365C87.0799 12.39 87.0288 12.0667 87.0288 11.7679C87.0288 11.4276 87.0799 11.0981 87.1822 10.7782C87.2837 10.459 87.4554 10.163 87.6957 9.89087C87.9361 9.61872 88.2494 9.38749 88.6351 9.1972C89.0208 9.0069 89.4905 8.87048 90.0442 8.78863C90.5972 8.69382 91.2385 8.62562 91.9668 8.58469C92.6951 8.54445 93.3942 8.48988 94.064 8.42167V8.25798C94.064 7.82281 93.9362 7.49678 93.682 7.27851C93.427 7.06093 92.9647 6.95248 92.2948 6.95248C92.0326 6.95248 91.7491 6.96271 91.4431 6.98317C91.1377 7.00364 90.8309 7.03365 90.5256 7.07526C90.2195 7.1155 89.9171 7.16665 89.6183 7.22804C89.3196 7.28943 89.0537 7.35422 88.8207 7.42243L88.2093 5.05563C88.5292 4.93353 88.901 4.81758 89.324 4.70913C89.7462 4.6 90.1794 4.5086 90.6235 4.43357C91.0676 4.35923 91.5198 4.30125 91.9785 4.26033C92.4372 4.21872 92.877 4.19894 93.2999 4.19894C93.999 4.19894 94.6396 4.26033 95.2225 4.3831C95.8047 4.50519 96.3044 4.70981 96.7186 4.99492C97.1342 5.28071 97.4542 5.65449 97.6799 6.11694C97.9056 6.57939 98.0188 7.15097 98.0188 7.83031V11.9923H98.0195ZM94.0428 10.2176C93.7222 10.2585 93.4015 10.2885 93.0815 10.3097C92.7608 10.3301 92.4694 10.3704 92.2079 10.4318C91.9456 10.4925 91.7345 10.592 91.5738 10.7278C91.4131 10.8642 91.3335 11.0681 91.3335 11.3403C91.3627 11.7072 91.457 11.9719 91.6177 12.1356C91.7776 12.2986 92.0399 12.3804 92.4036 12.3804C92.6221 12.3804 92.8916 12.3334 93.2123 12.2379C93.5322 12.1431 93.8091 11.9998 94.0428 11.8095V10.2183V10.2176ZM81.3267 14.5017V10.442H78.1367V14.5017H73.9416V4.42334H78.1367V8.03426H81.3267V4.42334H85.5211V14.5017H81.3267ZM67.8027 14.5017V10.972C67.3513 11.1357 66.8451 11.2646 66.284 11.3601C65.7238 11.4556 65.181 11.5026 64.6565 11.5026C63.4323 11.5026 62.4819 11.2243 61.8048 10.6664C61.1269 10.1091 60.7887 9.23198 60.7887 8.03426V4.42334H64.9838V7.38151C64.9838 7.80303 65.0824 8.12292 65.2789 8.34051C65.4747 8.55809 65.7917 8.66722 66.2293 8.66722C66.4477 8.66722 66.7099 8.64676 67.0153 8.60583C67.3213 8.56491 67.5836 8.49739 67.802 8.4019V4.42334H71.9971V14.5017H67.802H67.8027ZM59.4351 9.44206C59.4351 10.176 59.3255 10.8669 59.1071 11.5128C58.8887 12.1588 58.5396 12.7167 58.0589 13.186C57.5782 13.6552 56.9552 14.0263 56.1911 14.2978C55.4263 14.5699 54.4978 14.7056 53.405 14.7056C52.313 14.7056 51.3875 14.5733 50.6307 14.3073C49.8725 14.0427 49.2611 13.675 48.795 13.2058C48.329 12.7365 47.99 12.1826 47.7797 11.5435C47.5678 10.9044 47.4626 10.2108 47.4626 9.46252C47.4626 8.71429 47.5722 8.0213 47.7906 7.38151C48.009 6.7424 48.3589 6.18856 48.8396 5.71929C49.3202 5.24934 49.9426 4.87965 50.7074 4.6075C51.4722 4.33535 52.3933 4.19894 53.4715 4.19894C54.5636 4.19894 55.4891 4.33535 56.2466 4.6075C57.0041 4.87965 57.6199 5.24934 58.0932 5.71929C58.5666 6.18856 58.9092 6.74308 59.1195 7.38151C59.3307 8.0213 59.4366 8.70747 59.4366 9.44206H59.4351ZM55.1312 9.46252C55.1312 9.09557 55.1092 8.75521 55.0661 8.44214C55.0216 8.12906 54.9383 7.85419 54.8149 7.61614C54.6907 7.3781 54.5197 7.19462 54.3013 7.06502C54.0829 6.93543 53.8061 6.87132 53.4708 6.87132C53.1362 6.87132 52.855 6.94225 52.6293 7.08549C52.4036 7.22804 52.2253 7.41902 52.0946 7.65638C51.9638 7.89443 51.8725 8.16999 51.8214 8.48238C51.7702 8.79545 51.7447 9.12217 51.7447 9.46184C51.7447 9.85608 51.7666 10.2135 51.8097 10.5327C51.8535 10.8519 51.9412 11.1241 52.0719 11.3485C52.2027 11.5729 52.3809 11.7461 52.6066 11.8689C52.8323 11.9917 53.1202 12.0524 53.4693 12.0524C53.8046 12.0524 54.0771 11.9876 54.2889 11.8587C54.5 11.7297 54.6673 11.5531 54.7915 11.3287C54.9157 11.1043 55.0026 10.8321 55.0537 10.5122C55.1041 10.193 55.1297 9.84244 55.1297 9.46184L55.1312 9.46252Z" fill="#FEFEFE"/>
</svg>
