<svg width="36" height="36" viewBox="0 0 36 36" fill="none" xmlns="http://www.w3.org/2000/svg">
<g clip-path="url(#clip0)">
<path d="M35.3716 27.1097C35.3852 27.107 35.3984 27.1033 35.4117 27.0999C35.4231 27.097 35.4345 27.0946 35.4456 27.0911C35.4587 27.0872 35.4714 27.0823 35.4841 27.0777C35.4953 27.0736 35.5066 27.07 35.5178 27.0653C35.5298 27.0603 35.5413 27.0545 35.553 27.049C35.5643 27.0436 35.5759 27.0386 35.587 27.0325C35.5982 27.0266 35.6087 27.0198 35.6195 27.0134C35.6306 27.0067 35.6419 27.0005 35.6527 26.9932C35.6642 26.9855 35.675 26.9769 35.6861 26.9686C35.6955 26.9616 35.7051 26.9551 35.7142 26.9476C35.7311 26.9337 35.7471 26.919 35.7627 26.9038C35.7655 26.9011 35.7686 26.8988 35.7714 26.896C35.7743 26.893 35.7768 26.8898 35.7796 26.8868C35.7946 26.8714 35.8092 26.8556 35.8229 26.8389C35.8309 26.8291 35.8379 26.8189 35.8454 26.8088C35.8531 26.7984 35.8612 26.7883 35.8684 26.7775C35.8761 26.7659 35.8829 26.754 35.8899 26.7421C35.8959 26.7321 35.9022 26.7223 35.9077 26.712C35.9142 26.7 35.9196 26.6877 35.9253 26.6755C35.9304 26.6647 35.9358 26.6539 35.9405 26.6428C35.9455 26.6308 35.9495 26.6186 35.9538 26.6065C35.9581 26.5946 35.9627 26.5828 35.9663 26.5708C35.9701 26.5585 35.9728 26.546 35.9759 26.5335C35.9789 26.5212 35.9825 26.5091 35.9849 26.4967C35.9878 26.4821 35.9896 26.4673 35.9916 26.4525C35.9931 26.4421 35.9951 26.4318 35.9961 26.4213C35.9987 26.3954 36.0001 26.3694 36.0001 26.3434V9.65597C36.0001 9.22469 35.6506 8.87524 35.2193 8.87524H10.6266C10.6198 8.87524 10.6131 8.87608 10.6062 8.87628C10.5913 8.8767 10.5766 8.87733 10.5618 8.87857C10.55 8.87951 10.5384 8.88087 10.5267 8.88243C10.5134 8.88409 10.5001 8.88607 10.4869 8.88846C10.4745 8.89065 10.4623 8.89325 10.4501 8.89606C10.4377 8.89898 10.4253 8.9021 10.413 8.90564C10.4008 8.90908 10.3889 8.91282 10.377 8.91678C10.3648 8.92094 10.3526 8.92531 10.3407 8.9301C10.3293 8.93458 10.3182 8.93916 10.3072 8.94416C10.2949 8.94967 10.2827 8.95561 10.2706 8.96175C10.2603 8.96706 10.2502 8.97247 10.2402 8.9782C10.2281 8.98507 10.2163 8.99235 10.2045 8.99985C10.1948 9.00609 10.1854 9.01255 10.176 9.0191C10.165 9.02691 10.154 9.03503 10.1433 9.04357C10.1335 9.05137 10.1239 9.05939 10.1145 9.06761C10.1051 9.07584 10.0958 9.08406 10.0868 9.0928C10.0765 9.10269 10.0666 9.113 10.0568 9.12341C10.0519 9.12861 10.0467 9.13319 10.042 9.1385C10.0392 9.14163 10.037 9.14506 10.0343 9.14818C10.0245 9.15953 10.0154 9.1714 10.0062 9.18337C9.99955 9.19211 9.99268 9.20086 9.98643 9.20981C9.97832 9.22147 9.97082 9.23344 9.96333 9.24551C9.95718 9.2554 9.95083 9.26519 9.94521 9.27529C9.93866 9.28694 9.93293 9.29892 9.927 9.31089C9.92158 9.32182 9.91596 9.33275 9.91107 9.34388C9.90597 9.35565 9.90149 9.36783 9.89702 9.3798C9.89254 9.39156 9.88796 9.40322 9.88411 9.41509C9.88026 9.42706 9.87713 9.43924 9.8738 9.45142C9.87047 9.46391 9.86693 9.47629 9.86412 9.48889C9.86152 9.50065 9.85975 9.51262 9.85767 9.52449C9.85538 9.53802 9.85309 9.55156 9.85142 9.56509C9.85007 9.57633 9.84944 9.58778 9.84861 9.59923C9.84757 9.61381 9.84663 9.62838 9.84643 9.64306C9.84632 9.64733 9.8458 9.65149 9.8458 9.65576V14.4704C9.8458 14.9017 10.1953 15.2511 10.6265 15.2511C11.0578 15.2511 11.4072 14.9017 11.4072 14.4704V11.3897L18.3485 17.5352C18.3123 17.5607 18.2774 17.5889 18.2449 17.6213L11.4071 24.4591V19.3284C11.4071 18.8971 11.0577 18.5477 10.6264 18.5477C10.1951 18.5477 9.8457 18.8971 9.8457 19.3284V20.2823H5.81197C5.3807 20.2823 5.03125 20.6318 5.03125 21.063C5.03125 21.4943 5.3807 21.8438 5.81197 21.8438H9.8457V26.3439C9.8457 26.7752 10.1951 27.1247 10.6264 27.1247H35.2191C35.2448 27.1247 35.2706 27.1233 35.2962 27.1208C35.3081 27.1197 35.3197 27.1174 35.3315 27.1157C35.345 27.1138 35.3583 27.1123 35.3716 27.1097ZM34.4385 24.4592L27.6006 17.6214C27.5963 17.617 27.5916 17.6134 27.5871 17.6092L32.7277 13.2479C33.0564 12.9689 33.0968 12.4763 32.8178 12.1475C32.5391 11.8189 32.0465 11.7783 31.7174 12.0574L22.9337 19.5096L12.6861 10.4368H34.4385V24.4592ZM19.3492 18.7257C19.4048 18.67 19.45 18.6079 19.4853 18.5419L22.4053 21.1272C22.5529 21.2578 22.7378 21.3234 22.9229 21.3234C23.1026 21.3234 23.2821 21.2616 23.4281 21.138L26.4039 18.6132C26.4309 18.6528 26.4614 18.6906 26.4965 18.7257L33.3343 25.5634H12.5114L19.3492 18.7257Z" fill="#303030"/>
<path d="M0.780721 17.7668H13.9663C14.3975 17.7668 14.747 17.4173 14.747 16.986C14.747 16.5548 14.3975 16.2053 13.9663 16.2053H0.780721C0.349451 16.2053 0 16.5548 0 16.986C0 17.4173 0.349451 17.7668 0.780721 17.7668Z" fill="#303030"/>
<path d="M2.14693 13.4643H8.0674C8.49867 13.4643 8.84812 13.1148 8.84812 12.6836C8.84812 12.2523 8.49867 11.9028 8.0674 11.9028H2.14693C1.71566 11.9028 1.36621 12.2523 1.36621 12.6836C1.36621 13.1148 1.71566 13.4643 2.14693 13.4643Z" fill="#303030"/>
<path d="M6.50601 23.5789H0.780721C0.349451 23.5789 0 23.9283 0 24.3596C0 24.7909 0.349451 25.1403 0.780721 25.1403H6.50601C6.93728 25.1403 7.28673 24.7909 7.28673 24.3596C7.28673 23.9283 6.93728 23.5789 6.50601 23.5789Z" fill="#303030"/>
</g>
<defs>
<clipPath id="clip0">
<rect width="36" height="36" fill="white"/>
</clipPath>
</defs>
</svg>
