<svg width="19" height="19" viewBox="0 0 19 19" fill="none" xmlns="http://www.w3.org/2000/svg">
<g clip-path="url(#clip0)">
<path d="M14.3323 12.7487L14.3323 12.7487C15.288 11.793 15.9387 10.5754 16.2024 9.24988C16.466 7.92435 16.3307 6.55041 15.8135 5.30181C15.2963 4.0532 14.4204 2.986 13.2967 2.23516C12.173 1.48432 10.8518 1.08356 9.50033 1.08356C8.14884 1.08356 6.8277 1.48432 5.70397 2.23516C4.58024 2.986 3.70439 4.0532 3.18719 5.30181C2.66998 6.55041 2.53463 7.92435 2.79827 9.24988C3.06191 10.5754 3.71268 11.793 4.66831 12.7487L4.66832 12.7487L8.83631 16.9167H3.95866H3.45866V17.4167V19V19.5H3.95866H15.042H15.542V19V17.4167V16.9167H15.042H10.1644L14.3323 12.7487ZM12.5058 10.9222L9.50033 13.9269L6.49487 10.9222C6.49485 10.9222 6.49482 10.9221 6.4948 10.9221C5.90054 10.3277 5.49586 9.57047 5.33194 8.7461C5.16801 7.9217 5.25222 7.0672 5.57391 6.29066C5.8956 5.51411 6.44034 4.8504 7.13923 4.38343C7.83812 3.91647 8.65979 3.66723 9.50033 3.66723C10.3409 3.66723 11.1625 3.91647 11.8614 4.38343C12.5603 4.8504 13.1051 5.51411 13.4267 6.29066C13.7484 7.0672 13.8326 7.9217 13.6687 8.7461C13.5048 9.57047 13.1001 10.3277 12.5059 10.9221C12.5058 10.9221 12.5058 10.9222 12.5058 10.9222Z" fill="#303030" stroke="#303030"/>
</g>
<defs>
<clipPath id="clip0">
<rect width="19" height="19" fill="white"/>
</clipPath>
</defs>
</svg>
