<svg width="24" height="20" viewBox="0 0 24 20" fill="none" xmlns="http://www.w3.org/2000/svg">
<path d="M23.9859 8.8924L23.3046 2.84662C23.1768 1.71356 22.2208 0.859371 21.0808 0.859371H20.3749V18.9085H21.7866V11.3808C22.4141 11.374 23.0121 11.1027 23.4309 10.6343C23.855 10.1597 24.0573 9.52485 23.9859 8.8924ZM22.3782 9.69349C22.2248 9.86524 22.0155 9.96247 21.7866 9.96888V2.66736C21.8474 2.76733 21.8879 2.88159 21.9018 3.00464L22.5831 9.0506C22.6099 9.28736 22.537 9.51587 22.3782 9.69349Z" fill="white"/>
<path d="M5.51899 5.30096V1.05182H4.10724V5.30096C4.10724 5.67303 3.82618 5.9801 3.46527 6.0224V1.05182H2.05353V6.0224C1.69281 5.9801 1.41174 5.67303 1.41174 5.30096V1.05182H0V5.30096C0 6.45178 0.913697 7.39258 2.05371 7.43726V18.9085H3.46546V7.43726C4.60529 7.39258 5.51899 6.45178 5.51899 5.30096Z" fill="white"/>
<path d="M11.9843 4.13403C7.82593 4.13403 4.44305 7.51709 4.44305 11.6752C4.44305 15.8336 7.82593 19.2166 11.9843 19.2166C16.1424 19.2166 19.5255 15.8336 19.5255 11.6752C19.5255 7.51709 16.1424 4.13403 11.9843 4.13403ZM11.9843 17.8049C8.6045 17.8049 5.8548 15.0552 5.8548 11.6752C5.8548 8.29548 8.6045 5.54578 11.9843 5.54578C15.364 5.54578 18.1137 8.29548 18.1137 11.6752C18.1137 15.0552 15.364 17.8049 11.9843 17.8049Z" fill="white"/>
<path d="M12.0593 9.30109L11.9843 9.37616L11.9092 9.30109C11.0312 8.42328 9.6028 8.4231 8.72499 9.30109C7.84718 10.1789 7.84718 11.6073 8.72316 12.4835L11.9726 15.7561L15.2436 12.4851C16.1214 11.6073 16.1214 10.1789 15.2436 9.30091C14.3656 8.4231 12.9373 8.4231 12.0593 9.30109ZM14.2453 11.487L11.9762 13.756L9.7231 11.487C9.39571 11.1596 9.39571 10.6268 9.7231 10.2994C9.88698 10.1355 10.1019 10.0537 10.3171 10.0537C10.5321 10.0537 10.7472 10.1355 10.9109 10.2994L11.9843 11.3727L13.0576 10.2994C13.385 9.97181 13.9179 9.97181 14.2453 10.2994C14.5728 10.6268 14.5728 11.1594 14.2453 11.487Z" fill="white"/>
</svg>
