<svg width="60" height="60" viewBox="0 0 60 60" fill="none" xmlns="http://www.w3.org/2000/svg">
<path d="M27.8895 40.7788C27.2111 40.7788 26.608 40.4773 26.2312 40.0251L14.8492 27.6632C14.0201 26.7588 14.0955 25.3265 15 24.4974C15.9045 23.6682 17.3367 23.7437 18.1658 24.6481L27.9648 35.2763L55.1006 8.21595C56.005 7.31148 57.4372 7.31148 58.2664 8.21595C59.1709 9.12042 59.1709 10.5526 58.2664 11.3818L29.4725 40.1004C29.0955 40.5527 28.4926 40.7788 27.8895 40.7788Z" fill="#FFCF25"/>
<path d="M30.0001 60C13.4924 60 0 46.5076 0 30.0001C0 13.4926 13.4924 0 30.0001 0C31.2815 0 32.2613 0.979924 32.2613 2.26124C32.2613 3.54256 31.2814 4.52248 30.0001 4.52248C15.9799 4.52248 4.52263 15.9797 4.52263 29.9999C4.52263 44.0201 15.9799 55.4774 30.0001 55.4774C44.0203 55.4774 55.4775 44.0201 55.4775 29.9999C55.4775 28.7185 56.4574 27.7387 57.7388 27.7387C59.0201 27.7387 60 28.7186 60 29.9999C60 46.5076 46.5076 60 30.0001 60Z" fill="#303030"/>
</svg>
