<svg width="30" height="30" viewBox="0 0 30 30" fill="none" xmlns="http://www.w3.org/2000/svg">
<circle cx="15" cy="15" r="14.25" stroke="#303030" stroke-width="1.5"/>
<path d="M20.8337 17.4163C19.9351 16.5178 18.8655 15.8526 17.6986 15.4499C18.9484 14.5891 19.7695 13.1485 19.7695 11.5195C19.7695 8.88962 17.6299 6.75 15 6.75C12.3701 6.75 10.2305 8.88962 10.2305 11.5195C10.2305 13.1485 11.0516 14.5891 12.3014 15.4499C11.1345 15.8526 10.065 16.5178 9.16638 17.4163C7.60816 18.9746 6.75 21.0463 6.75 23.25H8.03906C8.03906 19.4117 11.1617 16.2891 15 16.2891C18.8383 16.2891 21.9609 19.4117 21.9609 23.25H23.25C23.25 21.0463 22.3918 18.9746 20.8337 17.4163ZM15 15C13.0809 15 11.5195 13.4387 11.5195 11.5195C11.5195 9.60038 13.0809 8.03906 15 8.03906C16.9191 8.03906 18.4805 9.60038 18.4805 11.5195C18.4805 13.4387 16.9191 15 15 15Z" fill="#303030"/>
</svg>
