<svg width="24" height="24" viewBox="0 0 24 24" fill="none" xmlns="http://www.w3.org/2000/svg">
<path d="M23.25 8.4375V6.32812C23.25 6.21652 23.2216 6.10542 23.1757 6.01369L21.8438 3.34969V2.10938C21.8438 0.946266 20.8975 0 19.7344 0H4.26562C3.10252 0 2.15625 0.946266 2.15625 2.10938V3.34969L0.82425 6.01369C0.775031 6.11208 0.75 6.22261 0.75 6.32812V8.4375C0.75 9.4762 1.31644 10.3845 2.15625 10.8716V19.9022C1.33786 20.1924 0.75 20.974 0.75 21.8906V23.2969C0.75 23.6852 1.06481 24 1.45312 24H22.5469C22.9352 24 23.25 23.6852 23.25 23.2969V21.8906C23.25 20.974 22.6621 20.1924 21.8438 19.9022V10.8716C22.6836 10.3845 23.25 9.4762 23.25 8.4375ZM3.5625 2.10938C3.5625 1.72167 3.87792 1.40625 4.26562 1.40625H19.7344C20.1221 1.40625 20.4375 1.72167 20.4375 2.10938V2.8125H3.5625V2.10938ZM3.29395 4.21875H20.7061L21.4092 5.625C20.5626 5.625 3.36033 5.625 2.59083 5.625L3.29395 4.21875ZM16.2188 11.25C17.0582 11.25 17.8124 10.8799 18.3281 10.2948C18.8439 10.8799 19.5981 11.25 20.4375 11.25V19.7812H14.8125V10.8716C15.2265 11.1118 15.7066 11.25 16.2188 11.25ZM14.8125 8.4375V7.03125H17.625V8.4375C17.625 9.21291 16.9942 9.84375 16.2188 9.84375C15.4433 9.84375 14.8125 9.21291 14.8125 8.4375ZM7.78125 11.25C8.62069 11.25 9.37486 10.8799 9.89062 10.2948C10.4064 10.8799 11.1606 11.25 12 11.25C12.5121 11.25 12.9922 11.1118 13.4062 10.8716V19.7812H3.5625V11.25C4.40194 11.25 5.15611 10.8799 5.67188 10.2948C6.18764 10.8799 6.94181 11.25 7.78125 11.25ZM6.375 8.4375V7.03125H9.1875V8.4375C9.1875 9.21291 8.55666 9.84375 7.78125 9.84375C7.00584 9.84375 6.375 9.21291 6.375 8.4375ZM12 9.84375C11.2246 9.84375 10.5938 9.21291 10.5938 8.4375V7.03125H13.4062V8.4375C13.4062 9.21291 12.7754 9.84375 12 9.84375ZM2.15625 7.03125H4.96875V8.4375C4.96875 9.21291 4.33791 9.84375 3.5625 9.84375C2.78709 9.84375 2.15625 9.21291 2.15625 8.4375V7.03125ZM21.8438 22.5938H2.15625V21.8906C2.15625 21.5029 2.47167 21.1875 2.85938 21.1875H21.1406C21.5283 21.1875 21.8438 21.5029 21.8438 21.8906V22.5938ZM20.4375 9.84375C19.6621 9.84375 19.0312 9.21291 19.0312 8.4375V7.03125H21.8438V8.4375C21.8438 9.21291 21.2129 9.84375 20.4375 9.84375Z" fill="#303030"/>
<path d="M16.9219 15.4688C17.3102 15.4688 17.625 15.154 17.625 14.7656C17.625 14.3773 17.3102 14.0625 16.9219 14.0625C16.5335 14.0625 16.2188 14.3773 16.2188 14.7656C16.2188 15.154 16.5335 15.4688 16.9219 15.4688Z" fill="#303030"/>
<path d="M11.2969 12.6562H5.67188C5.28356 12.6562 4.96875 12.9711 4.96875 13.3594V17.5781C4.96875 17.9664 5.28356 18.2812 5.67188 18.2812H11.2969C11.6852 18.2812 12 17.9664 12 17.5781V13.3594C12 12.9711 11.6852 12.6562 11.2969 12.6562ZM10.5938 16.875H6.375V14.0625H10.5938V16.875Z" fill="#303030"/>
</svg>
