<svg width="18" height="18" viewBox="0 0 18 18" fill="none" xmlns="http://www.w3.org/2000/svg">
<path d="M3.8115 0.75C3.00051 0.75316 2.22364 1.07673 1.65018 1.65018C1.07673 2.22364 0.75316 3.00051 0.75 3.8115V14.1885C0.75316 14.9995 1.07673 15.7764 1.65018 16.3498C2.22364 16.9233 3.00051 17.2468 3.8115 17.25H14.1885C14.9995 17.2468 15.7764 16.9233 16.3498 16.3498C16.9233 15.7764 17.2468 14.9995 17.25 14.1885V3.8115C17.2468 3.00051 16.9233 2.22364 16.3498 1.65018C15.7764 1.07673 14.9995 0.75316 14.1885 0.75H3.8115ZM3.8115 2.25H14.1885C15.0585 2.25 15.75 2.9415 15.75 3.8115V14.1885C15.75 15.0585 15.0585 15.75 14.1885 15.75H3.8115C3.60608 15.7513 3.40245 15.7118 3.21241 15.6338C3.02238 15.5558 2.84972 15.4408 2.70447 15.2955C2.55921 15.1503 2.44424 14.9776 2.36622 14.7876C2.28821 14.5976 2.24871 14.3939 2.25 14.1885V3.8115C2.25 2.9415 2.9415 2.25 3.8115 2.25ZM8.78925 6.1725C8.238 6.16725 7.76925 6.1725 7.506 6.3015C7.32975 6.387 7.1955 6.57975 7.27725 6.58875C7.38 6.60375 7.611 6.65325 7.73475 6.8205C7.89225 7.03425 7.887 7.518 7.887 7.518C7.887 7.518 7.97475 8.84775 7.6725 9.015C7.46475 9.129 7.1805 8.89725 6.5655 7.83975C6.252 7.29525 6.015 6.6945 6.015 6.6945C6.015 6.6945 5.97 6.58275 5.889 6.52425C5.78925 6.4515 5.65125 6.4275 5.65125 6.4275L4.1835 6.4365C4.1835 6.4365 3.96375 6.4455 3.885 6.53925C3.8115 6.627 3.879 6.7995 3.879 6.7995C3.879 6.7995 5.02725 9.486 6.32775 10.8397C7.52025 12.0825 8.874 12 8.874 12H9.489C9.489 12 9.6735 11.9797 9.76725 11.88C9.85575 11.7863 9.85275 11.61 9.85275 11.61C9.85275 11.61 9.84075 10.7872 10.2218 10.6642C10.5997 10.5465 11.0798 11.4607 11.5928 11.8125C11.9828 12.0787 12.2782 12.0203 12.2782 12.0203L13.65 12C13.65 12 14.3648 11.9558 14.025 11.3903C13.9988 11.3468 13.8285 10.9748 13.0087 10.2128C12.147 9.41625 12.2618 9.54525 13.2983 8.16525C13.9283 7.3245 14.1803 6.8115 14.1007 6.58875C14.0258 6.381 13.5623 6.4365 13.5623 6.4365L12.018 6.4455C12.018 6.4455 11.904 6.4305 11.8193 6.48075C11.761 6.52403 11.7145 6.58129 11.6842 6.64725C11.6842 6.64725 11.4382 7.2975 11.1127 7.85175C10.4272 9.01725 10.149 9.08175 10.038 9.009C9.777 8.83875 9.8415 8.32875 9.8415 7.96875C9.8415 6.83475 10.014 6.366 9.50775 6.24375C9.3405 6.2025 9.2175 6.17625 8.79 6.1725H8.78925Z" fill="#303030"/>
</svg>
