<svg width="20" height="20" viewBox="0 0 20 20" fill="none" xmlns="http://www.w3.org/2000/svg">
<path d="M4.23501 0.833332C3.33391 0.836843 2.47072 1.19636 1.83355 1.83354C1.19637 2.47071 0.836855 3.3339 0.833344 4.235V15.765C0.836855 16.6661 1.19637 17.5293 1.83355 18.1665C2.47072 18.8036 3.33391 19.1632 4.23501 19.1667H15.765C16.6661 19.1632 17.5293 18.8036 18.1665 18.1665C18.8036 17.5293 19.1632 16.6661 19.1667 15.765V4.235C19.1632 3.3339 18.8036 2.47071 18.1665 1.83354C17.5293 1.19636 16.6661 0.836843 15.765 0.833332H4.23501ZM4.23501 2.5H15.765C16.7317 2.5 17.5 3.26833 17.5 4.235V15.765C17.5 16.7317 16.7317 17.5 15.765 17.5H4.23501C4.00676 17.5014 3.7805 17.4575 3.56936 17.3709C3.35821 17.2842 3.16637 17.1564 3.00497 16.995C2.84358 16.8336 2.71583 16.6418 2.62915 16.4307C2.54247 16.2195 2.49857 15.9932 2.50001 15.765V4.235C2.50001 3.26833 3.26834 2.5 4.23501 2.5ZM9.76584 6.85833C9.15334 6.8525 8.63251 6.85833 8.34001 7.00167C8.14418 7.09667 7.99501 7.31083 8.08584 7.32083C8.20001 7.3375 8.45668 7.3925 8.59418 7.57833C8.76918 7.81583 8.76334 8.35333 8.76334 8.35333C8.76334 8.35333 8.86084 9.83083 8.52501 10.0167C8.29418 10.1433 7.97834 9.88583 7.29501 8.71083C6.94668 8.10583 6.68334 7.43833 6.68334 7.43833C6.68334 7.43833 6.63334 7.31417 6.54334 7.24917C6.43251 7.16833 6.27918 7.14167 6.27918 7.14167L4.64834 7.15167C4.64834 7.15167 4.40418 7.16167 4.31668 7.26583C4.23501 7.36333 4.31001 7.555 4.31001 7.555C4.31001 7.555 5.58584 10.54 7.03084 12.0442C8.35584 13.425 9.86001 13.3333 9.86001 13.3333H10.5433C10.5433 13.3333 10.7483 13.3108 10.8525 13.2C10.9508 13.0958 10.9475 12.9 10.9475 12.9C10.9475 12.9 10.9342 11.9858 11.3575 11.8492C11.7775 11.7183 12.3108 12.7342 12.8808 13.125C13.3142 13.4208 13.6425 13.3558 13.6425 13.3558L15.1667 13.3333C15.1667 13.3333 15.9608 13.2842 15.5833 12.6558C15.5542 12.6075 15.365 12.1942 14.4542 11.3475C13.4967 10.4625 13.6242 10.6058 14.7758 9.0725C15.4758 8.13833 15.7558 7.56833 15.6675 7.32083C15.5842 7.09 15.0692 7.15167 15.0692 7.15167L13.3533 7.16167C13.3533 7.16167 13.2267 7.145 13.1325 7.20083C13.0678 7.24892 13.0162 7.31254 12.9825 7.38583C12.9825 7.38583 12.7092 8.10833 12.3475 8.72417C11.5858 10.0192 11.2767 10.0908 11.1533 10.01C10.8633 9.82083 10.935 9.25417 10.935 8.85417C10.935 7.59417 11.1267 7.07333 10.5642 6.9375C10.3783 6.89167 10.2417 6.8625 9.76668 6.85833H9.76584Z" fill="white"/>
</svg>
