<svg width="26" height="28" viewBox="0 0 26 28" fill="none" xmlns="http://www.w3.org/2000/svg">
<path d="M24.9011 12.7298H24.3887V10.326C24.3887 8.29845 22.8569 6.64908 20.9742 6.64908H18.6481V3.29835C18.6481 2.06325 17.715 1.05833 16.5681 1.05833H2.85161C1.27917 1.05833 0 2.4359 0 4.12906V4.41372V4.69781V23.2648C0 25.2923 1.53183 26.9417 3.41454 26.9417H20.9742C22.8569 26.9417 24.3887 25.2923 24.3887 23.2648V20.9154H24.9011C25.5069 20.9154 26 20.3844 26 19.7319V13.9131C26 13.2607 25.5069 12.7298 24.9011 12.7298ZM1.03998 4.41367V4.12901C1.03998 3.05333 1.85271 2.17831 2.85161 2.17831H16.5681C17.1417 2.17831 17.6081 2.68063 17.6081 3.29829V6.64897H2.85161C1.85271 6.64897 1.03998 5.77372 1.03998 4.6977V4.41367ZM23.3487 23.2648C23.3487 24.6746 22.2836 25.8217 20.9742 25.8217H3.41454C2.10516 25.8217 1.03998 24.6746 1.03998 23.2648V7.06779C1.53293 7.50567 2.1642 7.769 2.85161 7.769H18.1281H18.6481H20.9742C22.2835 7.769 23.3487 8.91606 23.3487 10.3259V12.7297H17.7186L15.7066 16.8225L17.7186 20.9153H23.3487V23.2648ZM24.96 19.7319C24.96 19.7669 24.9336 19.7953 24.9011 19.7953H18.3447L16.8832 16.8225L18.3447 13.8497H24.9011C24.9336 13.8497 24.96 13.8782 24.96 13.9131V19.7319Z" fill="black"/>
<path d="M20.4283 14.9052C19.4467 14.9052 18.6479 15.7655 18.6479 16.8226C18.6479 17.8797 19.4467 18.7399 20.4283 18.7399C21.4101 18.7399 22.2089 17.8797 22.2089 16.8226C22.2089 15.7655 21.4101 14.9052 20.4283 14.9052ZM20.4283 17.6199C20.02 17.6199 19.6879 17.2622 19.6879 16.8226C19.6879 16.3829 20.02 16.0253 20.4283 16.0253C20.8366 16.0253 21.1689 16.3829 21.1689 16.8226C21.1689 17.2622 20.8365 17.6199 20.4283 17.6199Z" fill="black"/>
<path d="M12.1945 22.2746H3.04042V23.3945H12.1945V22.2746Z" fill="black"/>
</svg>
