<svg xmlns="http://www.w3.org/2000/svg" width="45.009" height="45.071" viewBox="0 0 45.009 45.071"><defs><style>.a{fill:#fff;}</style></defs><g transform="translate(-0.349)"><path class="a" d="M.641,43.945a2.227,2.227,0,0,0,1.922,1.126h0a2.222,2.222,0,0,0,1.122-.309l23.376-13.7A9.264,9.264,0,0,0,31.8,24.137a9.4,9.4,0,0,0-.089-3.1,22.065,22.065,0,0,0,4.215.391A18.529,18.529,0,0,0,42.5,20.366c1.847-.739,2.864-1.771,2.863-2.908s-1.017-2.168-2.864-2.906a17.917,17.917,0,0,0-5.442-1.033A13.979,13.979,0,0,0,38.4,11.137c.784-1.828.773-3.277-.03-4.081s-2.252-.815-4.081-.031A14.521,14.521,0,0,0,31.531,8.63c-.1-3.572-1.079-6.5-2.184-7.733A2.367,2.367,0,0,0,27.566,0h0C26.43,0,25.4,1.017,24.659,2.863a20.242,20.242,0,0,0-.606,10.8,9.326,9.326,0,0,0-8.2,2.686l-.081.082c-1.183,1.2-.44.377-15.115,25.3a2.181,2.181,0,0,0-.019,2.212ZM28.815,10.989a21.093,21.093,0,0,0-2.09,2.487,17.755,17.755,0,0,1,.392-9.629,5.15,5.15,0,0,1,.459-.909,8.317,8.317,0,0,1,.892,2.412,18.366,18.366,0,0,1,.347,5.639Zm7.461-1.844a5.211,5.211,0,0,1-.314.949,17.728,17.728,0,0,1-6.185,6.869,9.411,9.411,0,0,0-1.322-1.32,17.424,17.424,0,0,1,6.872-6.184,5.2,5.2,0,0,1,.949-.314Zm-4,9.31a21.651,21.651,0,0,0,2.607-2.3,17.687,17.687,0,0,1,6.63.856,5.206,5.206,0,0,1,.893.449,5.2,5.2,0,0,1-.893.449,18.7,18.7,0,0,1-9.237.547ZM3.793,41.63C7.07,36.06,9.5,31.9,11.361,28.723l2.356,2.356,1.872-1.872-2.849-2.848c2.657-4.556,3.623-6.219,4.16-7.071l4.3,4.3,1.872-1.872-4.346-4.346a6.7,6.7,0,1,1,7.038,11.375l-1.987,1.164L20.269,26.4,18.4,28.271,21.422,31.3Z" transform="translate(0)"/></g></svg>