<svg xmlns="http://www.w3.org/2000/svg" width="49.282" height="49.282" viewBox="0 0 49.282 49.282"><defs><style>.a{fill:#fff;}</style></defs><path class="a" d="M48.32,8.855H17.326V.963A.963.963,0,0,0,16.363,0h-3.85a.963.963,0,0,0-.963.963V8.855H9.625V4.043a.963.963,0,0,0-.963-.963H4.813a.963.963,0,0,0-.963.963V8.855H.963A.963.963,0,0,0,0,9.818v38.5a.963.963,0,0,0,.963.963H48.32a.963.963,0,0,0,.963-.963V9.818A.963.963,0,0,0,48.32,8.855ZM13.476,1.925H15.4v6.93H13.476Zm-7.7,3.08H7.7v3.85H5.775Zm5.775,42.352H7.7V45.432h3.85Zm5.775-2.888v2.888h-3.85V44.47a.963.963,0,0,0-.963-.963H10.588V36.769h9.625v6.738H18.288A.963.963,0,0,0,17.326,44.47Zm2.913-26.733c.243,1.045-.7,1.955-2.17,3.225-.47.406-.949.82-1.368,1.26a44.715,44.715,0,0,0-4.569-5.388.963.963,0,0,0-1.614.9c.381,1.637-.982,2.946-3.1,4.757-.56.478-1.126.961-1.637,1.465V14.631H25.026v5.907a31.515,31.515,0,0,0-3.173-3.7.963.963,0,0,0-1.614.9ZM8.662,23.958c1.423-1.214,2.977-2.54,3.585-4.2a34.633,34.633,0,0,1,3.577,4.624,10.332,10.332,0,0,1,1.16,2.417.985.985,0,0,0,1.194.654.963.963,0,0,0,.654-1.194,11.166,11.166,0,0,0-1.052-2.355,12.677,12.677,0,0,1,1.548-1.49,9.782,9.782,0,0,0,2.5-2.8c1.555,1.769,3.2,4.037,3.2,5.282v6.092H16.1a12.5,12.5,0,0,0-3.294-6.263.963.963,0,0,0-1.258-.089,10.346,10.346,0,0,0-3.788,6.353H5.775V27.625C5.775,26.42,7.177,25.224,8.662,23.958ZM23.1,32.919v1.925h-3.85V32.919Zm-9.625,0h3.85v1.925h-3.85ZM9.707,30.994a8.166,8.166,0,0,1,2.339-4.216,10.077,10.077,0,0,1,2.111,4.216ZM7.7,32.919h3.85v1.925H7.7ZM23.1,47.357h-3.85V45.432H23.1Zm8.855,0h-6.93V44.47a.963.963,0,0,0-.963-.963H22.139V36.769h1.925a.963.963,0,0,0,.963-.963V32.919h.963a.963.963,0,0,0,.963-.963V13.668a.963.963,0,0,0-.963-.963H4.813a.963.963,0,0,0-.963.963V31.957a.963.963,0,0,0,.963.963h.963v2.888a.963.963,0,0,0,.963.963H8.663v6.738H6.738a.963.963,0,0,0-.963.963v2.888H1.925V10.781H31.957V31.957a3.85,3.85,0,0,0,0,7.7Zm1.925-7.7h3.85v7.7h-3.85Zm5.775,7.7V38.694a.963.963,0,0,0-.963-.963H31.957a1.925,1.925,0,0,1,0-3.85H40.62a2.891,2.891,0,0,1,2.888,2.888V47.357Zm7.7,0H45.432V36.769a4.818,4.818,0,0,0-4.813-4.813H33.882V26.181H47.357Zm0-23.1H33.882V10.781H47.357Z"/><path class="a" d="M372.963,133.925h3.85a.963.963,0,0,0,0-1.925h-3.85a.963.963,0,0,0,0,1.925Z" transform="translate(-336.193 -119.294)"/><path class="a" d="M452.963,133.925a.963.963,0,1,0-.963-.963A.964.964,0,0,0,452.963,133.925Z" transform="translate(-408.493 -119.294)"/><path class="a" d="M452.963,173.925a.963.963,0,1,0-.963-.963A.964.964,0,0,0,452.963,173.925Z" transform="translate(-408.493 -155.444)"/><path class="a" d="M372.963,173.925h3.85a.963.963,0,1,0,0-1.925h-3.85a.963.963,0,1,0,0,1.925Z" transform="translate(-336.193 -155.444)"/><path class="a" d="M412.963,212a.963.963,0,1,0,.963.963A.963.963,0,0,0,412.963,212Z" transform="translate(-372.343 -191.594)"/><path class="a" d="M452.963,213.925a.963.963,0,1,0-.963-.963A.963.963,0,0,0,452.963,213.925Z" transform="translate(-408.493 -191.594)"/><path class="a" d="M372.963,213.925a.963.963,0,1,0-.963-.963A.963.963,0,0,0,372.963,213.925Z" transform="translate(-336.193 -191.594)"/></svg>