<svg xmlns="http://www.w3.org/2000/svg" width="25.738" height="25.738" viewBox="0 0 25.738 25.738">
  <g id="gold" transform="translate(3)">
    <g id="Group_15" data-name="Group 15" transform="translate(-3)">
      <g id="Group_14" data-name="Group 14">
        <path id="Path_75" data-name="Path 75" d="M12.87,0h0a12.869,12.869,0,0,0,0,25.738h0A12.869,12.869,0,0,0,12.87,0Z" fill="#ffc34d"/>
        <path id="Path_76" data-name="Path 76" d="M268.879,12.869A12.856,12.856,0,0,1,256.01,25.738V0A12.856,12.856,0,0,1,268.879,12.869Z" transform="translate(-243.14)" fill="#f93"/>
        <g id="Group_13" data-name="Group 13" transform="translate(1.533 1.533)">
          <path id="Path_77" data-name="Path 77" d="M32,113.8H30.49a11.262,11.262,0,0,1,2.783-6.733l1.076,1.076A9.808,9.808,0,0,0,32,113.8Z" transform="translate(-30.49 -103.22)" fill="#ffea80"/>
          <path id="Path_78" data-name="Path 78" d="M34.35,276.656l-1.076,1.076A11.258,11.258,0,0,1,30.49,271H32A9.808,9.808,0,0,0,34.35,276.656Z" transform="translate(-30.49 -258.91)" fill="#ffea80"/>
          <path id="Path_79" data-name="Path 79" d="M108.146,404.73a9.809,9.809,0,0,0,5.656,2.348v1.512a11.263,11.263,0,0,1-6.733-2.784Z" transform="translate(-103.22 -385.917)" fill="#ffea80"/>
          <path id="Path_80" data-name="Path 80" d="M276.656,404.73l1.076,1.076A11.258,11.258,0,0,1,271,408.59v-1.512A9.809,9.809,0,0,0,276.656,404.73Z" transform="translate(-258.91 -385.917)" fill="#ffea80"/>
          <path id="Path_81" data-name="Path 81" d="M107.07,33.273A11.258,11.258,0,0,1,113.8,30.49V32a9.808,9.808,0,0,0-5.656,2.348Z" transform="translate(-103.22 -30.49)" fill="#ffea80"/>
          <path id="Path_82" data-name="Path 82" d="M277.733,33.273l-1.076,1.076A9.808,9.808,0,0,0,271,32V30.49A11.262,11.262,0,0,1,277.733,33.273Z" transform="translate(-258.91 -30.49)" fill="#ffea80"/>
          <path id="Path_83" data-name="Path 83" d="M106.69,98.345a8.355,8.355,0,0,1-8.344,8.345h0a8.345,8.345,0,1,1,0-16.69h0A8.355,8.355,0,0,1,106.69,98.345Z" transform="translate(-87.008 -87.008)" fill="#ffea80"/>
        </g>
        <path id="Path_84" data-name="Path 84" d="M264.354,98.345a8.355,8.355,0,0,1-8.344,8.345V90A8.355,8.355,0,0,1,264.354,98.345Z" transform="translate(-243.14 -85.476)" fill="#ffc34d"/>
        <path id="Path_91" data-name="Path 91" d="M408.59,113.8h-1.512a9.809,9.809,0,0,0-2.348-5.656l1.076-1.076A11.258,11.258,0,0,1,408.59,113.8Z" transform="translate(-384.384 -101.688)" fill="#ffea80"/>
        <path id="Path_92" data-name="Path 92" d="M407.078,271h1.512a11.263,11.263,0,0,1-2.783,6.733l-1.076-1.076A9.808,9.808,0,0,0,407.078,271Z" transform="translate(-384.384 -257.377)" fill="#ffea80"/>
        <g id="m" transform="translate(8.189 8.433)">
          <path id="Path_111" data-name="Path 111" d="M188.406,183.032V191.9h1.829l-.191-6.593,2.4,6.6h.652v-2.469l-2.3-6.411Z" transform="translate(-188.406 -183.031)" fill="#ffc34d"/>
          <path id="Path_112" data-name="Path 112" d="M193.093,183.032V191.9h-1.829l.191-6.593-2.4,6.6h-.652v-2.469l2.3-6.411Z" transform="translate(-183.761 -183.031)" fill="#f93"/>
        </g>
      </g>
    </g>
  </g>
</svg>
