<svg xmlns="http://www.w3.org/2000/svg" width="54.616" height="39.959" viewBox="0 0 54.616 39.959"><defs><style>.a{fill:#fff;}</style></defs><g transform="translate(0 -47.328)"><path class="a" d="M54.612,63.722a9.505,9.505,0,0,0-2.637-5.851c-2.4-2.707-6.49-5.228-12.153-7.494a42.008,42.008,0,0,0-15.44-3.048A30.513,30.513,0,0,0,9.324,51a18.253,18.253,0,0,0-4.968,4.032A17.36,17.36,0,0,0,.009,66.817C0,66.867,0,74.968,0,75c.382,5.066,2.914,8.941,7.131,10.91a15.773,15.773,0,0,0,6.635,1.38,17.634,17.634,0,0,0,10.1-3.08C31.281,78.9,36.774,77.3,42.236,78.86c3.585,1.027,6.528.835,8.747-.57A8.4,8.4,0,0,0,54.608,72.3C54.618,72.234,54.619,63.773,54.612,63.722Zm-2.387,1.321c-.394,2.4-1.735,5.264-5.882,5.264a12.939,12.939,0,0,1-3.525-.557,17.088,17.088,0,0,0-2.133-.466l9.189-10.262C51.759,60.978,52.56,63,52.225,65.043ZM48.14,57.476,37.733,69.1c-4.176.113-8.46,1.757-13.652,5.253L42.29,53.985A31.758,31.758,0,0,1,48.14,57.476Zm-9.182-4.944c.378.151.745.3,1.107.456L18.154,77.5a16.136,16.136,0,0,1-4.365.607,13.671,13.671,0,0,1-4.7-.805L33.146,50.7A40.971,40.971,0,0,1,38.958,52.533ZM24.381,49.651a37.516,37.516,0,0,1,6.115.515L6.932,76.225a9.608,9.608,0,0,1-4-5.325L21.873,49.746C22.7,49.685,23.533,49.651,24.381,49.651ZM6.045,56.63a17.172,17.172,0,0,1,4.347-3.567,24.1,24.1,0,0,1,7.951-2.857L2.386,68.027C2.384,68,2.017,61.178,6.045,56.63Zm43.7,19.7c-1.635,1.035-3.945,1.135-6.865.3a17.176,17.176,0,0,0-10.011.181,36.512,36.512,0,0,0-10.348,5.512A15.159,15.159,0,0,1,8.115,83.8c-2.4-1.121-5.341-3.566-5.786-8.845a11.589,11.589,0,0,0,2.414,2.584,14.652,14.652,0,0,0,9.046,2.885,17.6,17.6,0,0,0,10.078-3.1c5.692-4.091,10.112-5.915,14.331-5.915a14.215,14.215,0,0,1,3.977.569,15.254,15.254,0,0,0,4.166.647h0A7.869,7.869,0,0,0,52.3,70.269v1.741A6.227,6.227,0,0,1,49.741,76.328Z" transform="translate(0 0)"/></g></svg>