<svg xmlns="http://www.w3.org/2000/svg" width="26" height="26" viewBox="0 0 26 26"><defs><style>.a{fill:none;}.b{fill:#4d4d4d;}</style></defs><path class="a" d="M0,0H26V26H0Z"/><path class="b" d="M12.833,9.583a3.25,3.25,0,1,0,3.25,3.25A3.25,3.25,0,0,0,12.833,9.583Zm0-2.167a5.417,5.417,0,1,1-5.417,5.417A5.417,5.417,0,0,1,12.833,7.417Zm7.042-.271a1.354,1.354,0,1,1-1.354-1.354A1.354,1.354,0,0,1,19.875,7.146ZM12.833,4.167c-2.68,0-3.118.008-4.365.063a5.885,5.885,0,0,0-1.948.36,3.127,3.127,0,0,0-1.17.762,3.131,3.131,0,0,0-.763,1.17A5.877,5.877,0,0,0,4.23,8.469c-.056,1.2-.063,1.614-.063,4.365,0,2.68.008,3.118.063,4.365a5.909,5.909,0,0,0,.359,1.947,3.368,3.368,0,0,0,1.931,1.932,5.9,5.9,0,0,0,1.95.361c1.2.056,1.614.063,4.365.063,2.68,0,3.118-.008,4.365-.063a5.92,5.92,0,0,0,1.947-.359,3.164,3.164,0,0,0,1.17-.76,3.132,3.132,0,0,0,.763-1.17,5.923,5.923,0,0,0,.36-1.95c.056-1.2.063-1.614.063-4.365,0-2.68-.008-3.118-.063-4.365a5.9,5.9,0,0,0-.36-1.948,3.154,3.154,0,0,0-.762-1.17,3.124,3.124,0,0,0-1.17-.763A5.883,5.883,0,0,0,17.2,4.23C16,4.173,15.584,4.167,12.833,4.167Zm0-2.167c2.943,0,3.311.011,4.465.065a7.981,7.981,0,0,1,2.63.5,5.282,5.282,0,0,1,1.92,1.249A5.317,5.317,0,0,1,23.1,5.738a8,8,0,0,1,.5,2.63c.051,1.155.065,1.522.065,4.465s-.011,3.311-.065,4.465a8.009,8.009,0,0,1-.5,2.63A5.531,5.531,0,0,1,19.929,23.1a8,8,0,0,1-2.63.5c-1.155.051-1.522.065-4.465.065s-3.311-.011-4.465-.065a8.009,8.009,0,0,1-2.63-.5,5.531,5.531,0,0,1-3.169-3.169,7.975,7.975,0,0,1-.5-2.63C2.014,16.144,2,15.777,2,12.833s.011-3.311.065-4.465a7.975,7.975,0,0,1,.5-2.63,5.287,5.287,0,0,1,1.249-1.92,5.305,5.305,0,0,1,1.92-1.249,7.975,7.975,0,0,1,2.63-.5C9.523,2.014,9.89,2,12.833,2Z" transform="translate(0.167 0.167)"/></svg>