<svg width="180" height="88" viewBox="0 0 180 88" fill="none" xmlns="http://www.w3.org/2000/svg">
<path d="M14.7944 87.4997C10.7099 87.4997 7.0108 85.8388 4.33333 83.1555C1.65586 80.4713 0 76.763 0 72.6682V15.3316C0 11.2368 1.65681 7.52842 4.33427 4.84422C7.01174 2.16003 10.7099 0.5 14.7953 0.5H165.208C169.292 0.5 172.99 2.16097 175.667 4.84422C178.343 7.52842 180 11.2368 180 15.3316V72.6682C180 76.763 178.344 80.4713 175.667 83.1555C172.99 85.8397 169.291 87.5007 165.207 87.5007H14.7944V87.4997ZM165.207 1.74526H14.7944C11.052 1.74526 7.66391 3.2664 5.21168 5.72478C2.75946 8.18317 1.24213 11.5807 1.24213 15.3316V72.6682C1.24213 76.42 2.75946 79.8166 5.21168 82.2759C7.66391 84.7343 11.052 86.2554 14.7944 86.2554H165.207C168.948 86.2554 172.336 84.7343 174.788 82.2759C177.241 79.8175 178.758 76.42 178.758 72.6691V15.3325C178.758 11.5816 177.241 8.18412 174.788 5.72573C172.336 3.26734 168.948 1.7462 165.207 1.7462V1.74526Z" fill="white"/>
<path d="M60.9634 25.3892C61.8503 25.3892 62.7201 25.4572 63.5721 25.5904C64.4241 25.7236 65.2487 25.9154 66.0488 26.1648L65.4089 29.9545C64.7172 29.7948 64.0508 29.6786 63.4128 29.6077C62.7738 29.5369 62.1971 29.5 61.6825 29.5C60.954 29.5 60.3018 29.5936 59.7251 29.7806C59.1483 29.9677 58.6554 30.2748 58.2483 30.7018C57.8392 31.1279 57.5245 31.6806 57.3021 32.3562C57.0806 33.0327 56.9694 33.8603 56.9694 34.8391C56.9694 35.8888 57.0664 36.7656 57.2615 37.4676C57.4566 38.1705 57.7535 38.7346 58.154 39.1626C58.5536 39.5896 59.0588 39.8967 59.6713 40.0837C60.2849 40.2708 61.0068 40.3634 61.8418 40.3634C62.0557 40.3634 62.329 40.3502 62.6674 40.3237C63.0038 40.2963 63.3723 40.2576 63.7719 40.2037C64.1705 40.1499 64.5749 40.0922 64.9839 40.0299C65.3919 39.9675 65.7651 39.8919 66.1007 39.8031L66.9008 43.4331C65.9951 43.7723 64.9792 44.0349 63.852 44.2211C62.7248 44.4081 61.6561 44.5007 60.6439 44.5007C58.7807 44.5007 57.254 44.2475 56.0646 43.7411C54.8743 43.2337 53.9338 42.5487 53.2411 41.6852C53.046 41.4424 52.8679 41.1892 52.7067 40.9246L11.1575 38.6684L51.4589 36.4784C51.4467 36.3244 51.4363 36.1685 51.4278 36.0126L24.0934 33.9066L51.7982 31.7723L51.8312 31.6353C51.8698 31.4775 51.9123 31.3225 51.9594 31.1685L34.8654 29.1457L54.9855 26.9934C55.3795 26.7223 55.8102 26.4766 56.2767 26.2565C57.5019 25.6792 59.0625 25.3892 60.9625 25.3892H60.9634ZM150.277 55.8195H151.783C151.816 56.2428 151.847 56.6689 151.88 57.0997C151.913 57.5306 151.945 57.9652 151.977 58.4036C151.523 58.6142 150.98 58.7862 150.348 58.9156C149.717 59.0451 149.061 59.1093 148.38 59.1093C147.828 59.1093 147.347 59.0167 146.934 58.8297C146.521 58.6426 146.264 58.2647 146.166 57.6959C146.166 57.7129 146.143 57.6959 146.095 57.6477C145.705 58.0048 145.3 58.2817 144.878 58.4763C144.456 58.6709 144.055 58.8174 143.676 58.9156C143.294 59.013 142.954 59.0696 142.654 59.0857C142.354 59.1027 142.122 59.1093 141.96 59.1093C141.167 59.1093 140.518 58.9922 140.017 58.756C139.514 58.5217 139.116 58.224 138.825 57.8669C138.533 57.5107 138.33 57.1243 138.216 56.7086C138.103 56.2947 138.047 55.9102 138.047 55.5512C138.047 55.1459 138.103 54.7509 138.216 54.3692C138.329 53.9885 138.52 53.6351 138.787 53.3101C139.055 52.9851 139.403 52.7083 139.833 52.4815C140.262 52.2529 140.785 52.0904 141.401 51.994C142.017 51.8797 142.729 51.7984 143.54 51.7493C144.35 51.7001 145.128 51.6359 145.873 51.5556V51.36C145.873 50.8394 145.731 50.4502 145.448 50.1894C145.165 49.9305 144.65 49.8001 143.905 49.8001C143.612 49.8001 143.298 49.8124 142.956 49.836C142.615 49.8616 142.276 49.8975 141.935 49.9466C141.595 49.9957 141.258 50.0571 140.926 50.1299C140.594 50.2017 140.298 50.2801 140.038 50.3604L139.358 47.5335C139.714 47.3871 140.127 47.2501 140.598 47.1197C141.068 46.9903 141.549 46.8797 142.044 46.7909C142.539 46.7021 143.041 46.6322 143.552 46.5831C144.063 46.5339 144.553 46.5094 145.022 46.5094C145.801 46.5094 146.513 46.5831 147.161 46.7295C147.809 46.875 148.365 47.1188 148.827 47.4599C149.289 47.8019 149.645 48.2478 149.897 48.7996C150.147 49.3532 150.274 50.0345 150.274 50.847V55.8186L150.277 55.8195ZM145.853 53.7003C145.495 53.7494 145.139 53.7853 144.783 53.8099C144.427 53.8354 144.102 53.8836 143.81 53.9554C143.519 54.0282 143.284 54.1472 143.106 54.3097C142.927 54.4732 142.839 54.716 142.839 55.04C142.871 55.4794 142.975 55.7949 143.154 55.9915C143.332 56.187 143.624 56.2834 144.03 56.2834C144.272 56.2834 144.572 56.2267 144.929 56.1133C145.285 56 145.593 55.828 145.853 55.6013V53.7003ZM133.43 52.4815C134.112 52.6761 134.598 52.9605 134.889 53.3347C135.18 53.7088 135.416 54.1387 135.595 54.6253C135.643 54.8038 135.732 55.0882 135.862 55.4784C135.991 55.8686 136.125 56.2825 136.262 56.7209C136.401 57.1611 136.535 57.575 136.664 57.9652C136.795 58.3544 136.882 58.6398 136.932 58.8183H132.314C132.265 58.6719 132.192 58.4376 132.095 58.1126C131.997 57.7875 131.896 57.4455 131.79 57.0884C131.685 56.7303 131.58 56.3902 131.474 56.0642C131.369 55.7401 131.292 55.4964 131.244 55.332C131.033 54.716 130.761 54.3135 130.43 54.1264C130.097 53.9393 129.672 53.8468 129.153 53.8468H127.913V58.8183H123.342V46.7786H127.913V51.1408H129.079C129.549 51.1408 129.951 51.0322 130.283 50.812C130.614 50.5928 130.862 50.2149 131.023 49.6792C131.072 49.5488 131.136 49.3495 131.218 49.0821C131.299 48.8138 131.389 48.5303 131.485 48.2299C131.582 47.9285 131.672 47.6441 131.753 47.3758C131.834 47.1084 131.89 46.909 131.922 46.7796H136.275C136.242 46.9251 136.18 47.1604 136.091 47.4863C136.001 47.8104 135.904 48.1562 135.8 48.5218C135.694 48.8875 135.597 49.2333 135.508 49.5573C135.418 49.8823 135.35 50.1185 135.301 50.264C135.172 50.7346 134.949 51.1654 134.633 51.5565C134.315 51.9458 133.915 52.2292 133.428 52.4088V52.4824L133.43 52.4815ZM119.428 52.3596C119.866 52.5051 120.218 52.6969 120.486 52.9331C120.753 53.1674 120.959 53.4206 121.105 53.688C121.251 53.9554 121.349 54.2275 121.398 54.5034C121.445 54.7793 121.47 55.0391 121.47 55.2838C121.47 56.4043 121.069 57.2745 120.267 57.8905C119.465 58.5084 118.423 58.8174 117.143 58.8174H108.707V46.7777H117.119C118.285 46.7777 119.224 47.0328 119.938 47.5449C120.652 48.057 121.007 48.8327 121.007 49.8729C121.007 50.2801 120.9 50.71 120.68 51.1644C120.461 51.6198 120.044 51.9855 119.428 52.2614V52.3587V52.3596ZM113.375 49.5328V51.4828H115.377C115.666 51.4828 115.907 51.4091 116.101 51.2608C116.293 51.1125 116.389 50.8734 116.389 50.5446C116.389 50.2489 116.293 50.0061 116.101 49.8162C115.907 49.6272 115.649 49.5328 115.33 49.5328H113.376H113.375ZM113.375 53.8713V56.0151H115.476C115.893 56.0151 116.203 55.914 116.404 55.7109C116.606 55.5087 116.707 55.2441 116.707 54.9182C116.707 54.6111 116.617 54.3588 116.441 54.1633C116.263 53.9677 115.95 53.8713 115.499 53.8713H113.375ZM105.426 55.8195H106.932C106.965 56.2428 106.996 56.6689 107.029 57.0997C107.062 57.5306 107.094 57.9652 107.126 58.4036C106.672 58.6142 106.129 58.7862 105.496 58.9156C104.866 59.0451 104.209 59.1093 103.529 59.1093C102.976 59.1093 102.496 59.0167 102.082 58.8297C101.668 58.6426 101.412 58.2647 101.315 57.6959C101.315 57.7129 101.29 57.6959 101.242 57.6477C100.852 58.0048 100.448 58.2817 100.026 58.4763C99.6034 58.6709 99.2028 58.8174 98.823 58.9156C98.4414 59.013 98.1011 59.0696 97.8014 59.0857C97.5017 59.1027 97.2699 59.1093 97.1078 59.1093C96.3143 59.1093 95.6659 58.9922 95.1645 58.756C94.6612 58.5217 94.2635 58.224 93.9723 57.8669C93.6811 57.5107 93.4775 57.1243 93.3635 56.7086C93.2504 56.2947 93.1948 55.9102 93.1948 55.5512C93.1948 55.1459 93.2504 54.7509 93.3635 54.3692C93.4766 53.9885 93.6679 53.6351 93.9356 53.3101C94.2032 52.9851 94.55 52.7083 94.9807 52.4815C95.4095 52.2529 95.9326 52.0904 96.5489 51.994C97.1643 51.8797 97.8768 51.7984 98.6873 51.7493C99.4978 51.7001 100.275 51.6359 101.021 51.5556V51.36C101.021 50.8394 100.879 50.4502 100.596 50.1894C100.312 49.9305 99.7975 49.8001 99.0521 49.8001C98.7608 49.8001 98.4451 49.8124 98.103 49.836C97.7637 49.8616 97.4235 49.8975 97.0824 49.9466C96.7431 49.9957 96.4057 50.0571 96.0739 50.1299C95.7413 50.2017 95.4453 50.2801 95.1852 50.3604L94.5057 47.5335C94.862 47.3871 95.2748 47.2501 95.745 47.1197C96.2153 46.9903 96.6969 46.8797 97.1917 46.7909C97.6865 46.7021 98.1888 46.6322 98.6996 46.5831C99.2104 46.5339 99.7005 46.5094 100.171 46.5094C100.948 46.5094 101.661 46.5831 102.309 46.7295C102.958 46.875 103.514 47.1188 103.975 47.4599C104.437 47.8019 104.793 48.2478 105.045 48.7996C105.296 49.3532 105.423 50.0345 105.423 50.847V55.8186L105.426 55.8195ZM101.001 53.7003C100.644 53.7494 100.288 53.7853 99.9313 53.8099C99.5751 53.8354 99.2509 53.8836 98.9588 53.9554C98.6675 54.0282 98.4329 54.1472 98.2548 54.3097C98.0757 54.4732 97.988 54.716 97.988 55.04C98.0201 55.4794 98.1247 55.7949 98.3037 55.9915C98.4819 56.187 98.7731 56.2834 99.1793 56.2834C99.4215 56.2834 99.7212 56.2267 100.078 56.1133C100.435 56 100.743 55.828 101.002 55.6013V53.7003H101.001ZM84.4452 49.8001H80.4577V46.7541H93.1241V49.8001H89.1376L89.114 58.8174H84.4706L84.4462 49.8001H84.4452ZM73.3838 52.8235C73.3838 53.7494 73.5582 54.4269 73.9069 54.8577C74.2556 55.2885 74.8832 55.5039 75.7908 55.5039C76.3101 55.5039 76.8284 55.4548 77.3477 55.3575C77.866 55.2611 78.3599 55.1468 78.8311 55.0164C78.9602 55.537 79.0893 56.0519 79.2194 56.564C79.3485 57.0761 79.4776 57.592 79.6077 58.1116C78.9263 58.4366 78.1648 58.6766 77.3223 58.8306C76.4788 58.9846 75.6372 59.0611 74.7937 59.0611C73.5299 59.0611 72.4998 58.8949 71.7072 58.5632C70.9118 58.2297 70.2879 57.779 69.8346 57.2093C69.3794 56.6415 69.0731 55.9877 68.911 55.2488C68.748 54.5091 68.6669 53.7334 68.6669 52.9218C68.6669 52.1584 68.7555 51.395 68.9355 50.6297C69.1136 49.8672 69.4341 49.1803 69.8959 48.5709C70.3577 47.9615 70.9976 47.4665 71.8165 47.0848C72.6346 46.704 73.6835 46.5113 74.9643 46.5113C75.4666 46.5113 76.0698 46.5472 76.7747 46.6209C77.4797 46.6946 78.1978 46.8448 78.9254 47.0725L78.3429 50.2886C77.8727 50.1913 77.4269 50.127 77.0047 50.094C76.5843 50.0609 76.2111 50.0448 75.8879 50.0448C75.0284 50.0448 74.396 50.2848 73.9917 50.7638C73.5855 51.2429 73.3829 51.9307 73.3829 52.8235H73.3838ZM67.0883 52.7744C67.0883 53.6521 66.9668 54.4769 66.7236 55.2488C66.4805 56.0198 66.0912 56.6868 65.5559 57.2462C65.0216 57.8074 64.3289 58.2505 63.4769 58.5755C62.6259 58.8996 61.593 59.0621 60.3782 59.0621C59.1624 59.0621 58.1333 58.9043 57.2907 58.5868C56.4482 58.2703 55.7678 57.8319 55.2485 57.2707C54.7292 56.7095 54.3532 56.0491 54.1176 55.2847C53.8838 54.5213 53.7651 53.6918 53.7651 52.799C53.7651 51.9061 53.8867 51.0766 54.1298 50.3122C54.3739 49.5488 54.7622 48.8865 55.2975 48.3253C55.8328 47.766 56.5245 47.3229 57.3765 46.9978C58.2275 46.6728 59.252 46.5103 60.4517 46.5103C61.6674 46.5103 62.6966 46.6719 63.5382 46.9978C64.3816 47.3229 65.0668 47.766 65.5927 48.3253C66.1195 48.8865 66.5012 49.5488 66.7349 50.3122C66.9696 51.0756 67.0883 51.8967 67.0883 52.7744ZM62.2989 52.799C62.2989 52.3606 62.2734 51.9543 62.2253 51.5792C62.1763 51.207 62.084 50.8763 61.9464 50.5928C61.8088 50.3084 61.6165 50.0893 61.3743 49.9343C61.1302 49.7803 60.8239 49.7019 60.4507 49.7019C60.0775 49.7019 59.7656 49.7879 59.5149 49.9589C59.2642 50.1299 59.0644 50.3566 58.9193 50.641C58.7741 50.9254 58.6714 51.2551 58.6158 51.6274C58.5583 52.0015 58.53 52.3927 58.53 52.798C58.53 53.2695 58.5546 53.6965 58.6036 54.0773C58.6516 54.4599 58.7496 54.784 58.8948 55.0514C59.0409 55.3188 59.2397 55.5266 59.4904 55.6731C59.7411 55.8186 60.0625 55.8923 60.4507 55.8923C60.8239 55.8923 61.1265 55.8157 61.3621 55.6617C61.5977 55.5077 61.7843 55.2961 61.9219 55.0278C62.0595 54.7604 62.1556 54.4354 62.2131 54.0527C62.2706 53.672 62.2989 53.2525 62.2989 52.798V52.799ZM37.4534 58.8183V63.2778H33.7826V55.6013L35.5101 55.5276C36.0124 54.9758 36.4214 54.3541 36.7371 53.6625C37.0528 52.9728 37.3082 52.2245 37.5024 51.4214C37.6975 50.6174 37.8435 49.7595 37.9397 48.8497C38.0367 47.9398 38.1263 46.9723 38.2073 45.9491L38.4985 42.0017H50.4355V55.5276L52.2101 55.6013V63.2778H48.5393V58.8183H37.4534ZM42.4134 46.6568C42.3164 47.7301 42.2221 48.6994 42.1335 49.5696C42.044 50.4388 41.9271 51.2315 41.781 51.9467C41.6359 52.661 41.4446 53.312 41.2099 53.8968C40.9743 54.4807 40.6633 55.0259 40.2731 55.5295H45.6959V45.2207H42.5359L42.4144 46.6587L42.4134 46.6568ZM136.095 38.522C135.704 38.4152 135.377 38.2461 135.11 38.0156C134.844 37.7831 134.626 37.5205 134.458 37.2266C134.289 36.9338 134.169 36.6172 134.099 36.28C134.029 35.9417 133.993 35.612 133.993 35.2917C133.993 34.7947 134.077 34.2874 134.246 33.7705C134.413 33.2556 134.698 32.7879 135.097 32.3694C135.496 31.9518 136.033 31.6126 136.708 31.3556C137.382 31.0977 138.225 30.9682 139.237 30.9682H147.704V44.2078H142.645V39.2967H141.368C140.854 39.2967 140.434 39.4035 140.116 39.6161C139.796 39.8296 139.531 40.2491 139.318 40.8708L138.146 44.2078H133.007L134.205 40.8443C134.347 40.3993 134.551 39.9638 134.818 39.5367C135.083 39.1097 135.519 38.7998 136.121 38.6023L136.095 38.5229V38.522ZM139.104 35.1726C139.104 35.7112 139.272 36.0976 139.609 36.331C139.947 36.5643 140.336 36.6806 140.781 36.6806H142.645V33.6912H140.781C140.266 33.6912 139.858 33.8216 139.556 34.0823C139.254 34.3431 139.103 34.7068 139.103 35.1736L139.104 35.1726ZM130.104 40.9246H131.756C131.79 41.3876 131.826 41.8543 131.861 42.3258C131.896 42.7972 131.932 43.2734 131.969 43.7543C131.471 43.9849 130.876 44.1719 130.185 44.3136C129.492 44.4563 128.774 44.5272 128.027 44.5272C127.424 44.5272 126.896 44.4242 126.443 44.2201C125.991 44.016 125.712 43.6022 125.605 42.9786C125.605 42.9975 125.578 42.9786 125.526 42.9257C125.1 43.3178 124.656 43.6192 124.194 43.8327C123.733 44.0463 123.293 44.2069 122.877 44.3127C122.459 44.4204 122.087 44.4818 121.758 44.4998C121.431 44.5187 121.178 44.5272 121 44.5272C120.131 44.5272 119.42 44.3977 118.871 44.1398C118.319 43.8819 117.886 43.5578 117.564 43.1657C117.246 42.7746 117.023 42.3522 116.899 41.8978C116.775 41.4443 116.712 41.0219 116.712 40.6308C116.712 40.1858 116.775 39.7531 116.899 39.3355C117.023 38.9179 117.232 38.5305 117.526 38.1752C117.818 37.8181 118.2 37.5167 118.67 37.2673C119.14 37.0178 119.712 36.8393 120.388 36.7325C121.063 36.6087 121.843 36.519 122.731 36.4651C123.618 36.4132 124.47 36.3423 125.287 36.2526V36.039C125.287 35.4703 125.131 35.0423 124.821 34.7579C124.511 34.4735 123.947 34.3318 123.129 34.3318C122.81 34.3318 122.464 34.345 122.091 34.3705C121.72 34.397 121.346 34.4376 120.973 34.4914C120.6 34.5434 120.232 34.6114 119.868 34.6917C119.503 34.7711 119.18 34.8561 118.896 34.9449L118.15 31.8488C118.54 31.6891 118.993 31.538 119.508 31.3962C120.022 31.2526 120.551 31.1326 121.092 31.0353C121.633 30.938 122.184 30.8615 122.743 30.8076C123.301 30.7547 123.839 30.7264 124.353 30.7264C125.205 30.7264 125.986 30.8076 126.696 30.9673C127.405 31.127 128.013 31.3953 128.519 31.7685C129.024 32.1417 129.416 32.6321 129.692 33.2367C129.966 33.8414 130.103 34.5887 130.103 35.4788V40.9237L130.104 40.9246ZM125.259 38.6023C124.869 38.6561 124.478 38.6968 124.088 38.7223C123.697 38.7487 123.342 38.8035 123.023 38.8829C122.704 38.9623 122.447 39.0926 122.25 39.2693C122.055 39.4479 121.958 39.7153 121.958 40.0715C121.993 40.5514 122.109 40.8982 122.305 41.1126C122.5 41.3262 122.819 41.4329 123.263 41.4329C123.529 41.4329 123.857 41.3706 124.248 41.2459C124.638 41.1211 124.977 40.9341 125.26 40.6846V38.6032L125.259 38.6023ZM109.765 44.2078V38.8952H105.876V44.2078H100.764V31.023H105.876V35.7471H109.765V31.023H114.876V44.2078H109.765ZM93.2824 44.2078V39.5906C92.733 39.8031 92.1167 39.9732 91.4334 40.097C90.7492 40.2217 90.0885 40.284 89.4486 40.284C87.9577 40.284 86.8004 39.9184 85.9748 39.19C85.1492 38.4606 84.7374 37.3126 84.7374 35.7471V31.023H89.8482V34.892C89.8482 35.4438 89.9679 35.8623 90.2073 36.1467C90.4476 36.4311 90.8321 36.5738 91.3655 36.5738C91.6322 36.5738 91.9517 36.5473 92.3249 36.4935C92.6981 36.4406 93.0167 36.3508 93.2824 36.227V31.023H98.3952V44.2078H93.2824ZM83.0872 37.5885C83.0872 38.5484 82.9543 39.4526 82.6876 40.2963C82.4218 41.1419 81.9958 41.8723 81.4087 42.4864C80.8234 43.0996 80.0648 43.5843 79.1336 43.9414C78.2016 44.2976 77.0697 44.4743 75.738 44.4743C74.4073 44.4743 73.2801 44.3014 72.3575 43.9537C71.433 43.606 70.6875 43.127 70.1192 42.5128C69.5519 41.8978 69.1391 41.1731 68.8818 40.337C68.6236 39.5008 68.4954 38.5938 68.4954 37.614C68.4954 36.6361 68.6283 35.7282 68.894 34.8911C69.1617 34.0549 69.5877 33.3293 70.1729 32.7161C70.7582 32.102 71.5168 31.6173 72.4489 31.2611C73.3819 30.9049 74.5044 30.7264 75.8181 30.7264C77.1488 30.7264 78.276 30.9049 79.1987 31.2611C80.1213 31.6173 80.8724 32.1011 81.4483 32.7161C82.025 33.3293 82.4425 34.0549 82.6998 34.8911C82.9571 35.7282 83.0862 36.6276 83.0862 37.5876L83.0872 37.5885ZM77.8425 37.615C77.8425 37.135 77.8161 36.69 77.7614 36.2809C77.7096 35.8718 77.6069 35.5109 77.4561 35.1991C77.3053 34.8883 77.097 34.6464 76.8313 34.4782C76.5645 34.3091 76.2281 34.2241 75.82 34.2241C75.411 34.2241 75.0698 34.3185 74.7956 34.5047C74.5204 34.6917 74.3018 34.9402 74.1425 35.2511C73.9823 35.5619 73.872 35.9228 73.8098 36.3319C73.7476 36.742 73.7165 37.169 73.7165 37.6131C73.7165 38.1289 73.7438 38.5966 73.7957 39.0142C73.8494 39.4328 73.9549 39.7871 74.1151 40.0819C74.2754 40.3747 74.4921 40.6024 74.7683 40.7621C75.0425 40.9218 75.3931 41.0012 75.82 41.0012C76.2281 41.0012 76.5608 40.9171 76.8181 40.7489C77.0753 40.5807 77.2789 40.3483 77.4306 40.0554C77.5814 39.7616 77.6879 39.4044 77.7511 38.9868C77.8123 38.5692 77.8444 38.111 77.8444 37.6121L77.8425 37.615Z" fill="white"/>
</svg>
