<svg width="84" height="39" viewBox="0 0 84 39" fill="none" xmlns="http://www.w3.org/2000/svg">
<path d="M84 32.5376C84 36.106 81.0182 39 77.34 39H6.65995C2.98183 39 0 36.1064 0 32.5376V6.46193C0 2.89317 2.98183 0 6.65995 0H77.34C81.0182 0 84 2.89317 84 6.46193V32.5376Z" fill="#303030"/>
<path d="M27.5701 10.5975C28.004 10.5975 28.4292 10.6287 28.8456 10.692C29.2621 10.7554 29.6655 10.8457 30.0563 10.9635L29.7438 12.7572C29.4053 12.6812 29.0802 12.6267 28.7677 12.5925C28.4548 12.5592 28.1728 12.5423 27.9217 12.5423C27.5658 12.5423 27.2468 12.5862 26.9648 12.6749C26.6824 12.7631 26.4421 12.9084 26.2424 13.1106C26.0427 13.3129 25.8886 13.5734 25.7807 13.8934C25.6719 14.2135 25.6179 14.6049 25.6179 15.0681C25.6179 15.5651 25.6654 15.9797 25.7611 16.312C25.8568 16.6447 26.0022 16.912 26.1971 17.1139C26.3921 17.3157 26.6397 17.4614 26.9391 17.5496C27.2385 17.6379 27.5919 17.6822 28.0001 17.6822C28.1041 17.6822 28.2386 17.6759 28.4035 17.6632C28.5684 17.6505 28.7486 17.6319 28.944 17.6066C29.1394 17.5808 29.3365 17.5542 29.5362 17.5243C29.7356 17.4947 29.9183 17.4592 30.0833 17.417L30.4736 19.1347C30.031 19.2947 29.5341 19.4188 28.9836 19.5071C28.4322 19.5953 27.91 19.6397 27.4152 19.6397C26.5039 19.6397 25.7576 19.5198 25.1762 19.2799C24.5948 19.0401 24.1353 18.7158 23.7967 18.3075C23.7014 18.1927 23.6144 18.0728 23.5356 17.9478L3.22241 16.8799L22.9255 15.8442C22.9194 15.7711 22.9142 15.6977 22.9102 15.6238L9.54597 14.6273L23.0908 13.6165L23.1069 13.5519C23.1261 13.4771 23.147 13.4032 23.17 13.3306L14.8138 12.3742L24.6501 11.3545C24.8429 11.2266 25.0531 11.1105 25.2807 11.0062C25.8795 10.733 26.6428 10.5962 27.5714 10.5962L27.5701 10.5975ZM71.2345 24.9958H71.9712C71.9869 25.1959 72.003 25.3977 72.0186 25.6013C72.0343 25.8048 72.0504 26.0108 72.0661 26.2181C71.8446 26.3182 71.5791 26.3989 71.2697 26.4605C70.9607 26.5217 70.6396 26.5526 70.3071 26.5526C70.0377 26.5526 69.8018 26.5082 69.5999 26.42C69.398 26.3317 69.2731 26.1531 69.2252 25.8837C69.2252 25.8913 69.2135 25.8837 69.1896 25.8605C68.9994 26.0298 68.8014 26.1603 68.5951 26.2528C68.3888 26.3448 68.1926 26.4141 68.0067 26.4601C67.8205 26.5061 67.6543 26.5331 67.5076 26.5407C67.3609 26.5483 67.2482 26.5521 67.169 26.5521C66.7804 26.5521 66.4636 26.4964 66.2182 26.3849C65.9723 26.2735 65.7782 26.1333 65.6355 25.964C65.4927 25.7951 65.3939 25.6122 65.3382 25.4159C65.283 25.22 65.2551 25.0376 65.2551 24.8682C65.2551 24.6761 65.283 24.4899 65.3382 24.3088C65.3935 24.1285 65.4866 23.9613 65.6176 23.8072C65.7482 23.6535 65.9188 23.523 66.1285 23.4149C66.3387 23.3072 66.5942 23.2304 66.8953 23.1844C67.1964 23.1307 67.545 23.0923 67.9415 23.0691C68.3375 23.0459 68.7178 23.0155 69.0825 22.977V22.8846C69.0825 22.6388 69.0133 22.4543 68.8745 22.331C68.7361 22.2082 68.4841 22.1465 68.1199 22.1465C67.9776 22.1465 67.8227 22.1524 67.6564 22.1638C67.4902 22.1752 67.3235 22.1925 67.1573 22.2158C66.991 22.2386 66.8265 22.2673 66.6642 22.3023C66.5015 22.3369 66.357 22.3732 66.2304 22.4121L65.8974 21.0744C66.0715 21.0052 66.2739 20.9402 66.5036 20.8785C66.7334 20.8173 66.9688 20.7654 67.2108 20.7231C67.4523 20.6809 67.6982 20.6484 67.9476 20.6252C68.1973 20.602 68.4367 20.5906 68.6665 20.5906C69.0472 20.5906 69.3954 20.6252 69.7126 20.6944C70.0294 20.7637 70.3006 20.8789 70.5269 21.0402C70.7527 21.2015 70.9268 21.4131 71.0495 21.6744C71.1722 21.9358 71.234 22.2588 71.234 22.6431V24.9953L71.2345 24.9958ZM69.0712 23.9929C68.8967 24.0162 68.7226 24.0331 68.5485 24.0449C68.374 24.0567 68.2156 24.0795 68.0729 24.1141C67.9302 24.1488 67.8153 24.2045 67.7282 24.2813C67.6412 24.3582 67.5977 24.4739 67.5977 24.6276C67.6133 24.8349 67.6651 24.9848 67.7522 25.0768C67.8392 25.1693 67.9819 25.2153 68.1799 25.2153C68.2987 25.2153 68.4454 25.1883 68.6199 25.1347C68.794 25.0811 68.9445 25.0004 69.0712 24.8927V23.9934V23.9929ZM62.9979 23.4162C63.3308 23.5086 63.5684 23.6433 63.7111 23.8198C63.8539 23.9967 63.9683 24.2003 64.0558 24.4308C64.0793 24.5157 64.1232 24.65 64.1863 24.8345C64.2499 25.019 64.3151 25.2149 64.3826 25.4226C64.4496 25.6304 64.5149 25.8259 64.5784 26.0108C64.642 26.1953 64.6855 26.33 64.709 26.4145H62.4508C62.4269 26.3452 62.3917 26.2342 62.3438 26.0801C62.2964 25.9264 62.2467 25.7651 62.1954 25.5958C62.1436 25.4269 62.0923 25.2656 62.0409 25.1115C61.9891 24.9578 61.9517 24.8425 61.9278 24.7656C61.8246 24.4739 61.6919 24.2835 61.5296 24.1948C61.3673 24.1065 61.1592 24.0622 60.9055 24.0622H60.2998V26.4145H58.0651V20.7181H60.2998V22.7824H60.8703C61.1001 22.7824 61.2963 22.7305 61.4586 22.6266C61.621 22.5227 61.7419 22.3441 61.8211 22.0903C61.8451 22.0287 61.8768 21.935 61.9164 21.8079C61.956 21.6812 61.9996 21.5465 62.047 21.4042C62.0944 21.2619 62.138 21.1272 62.1776 21.0006C62.2172 20.8739 62.245 20.7797 62.2611 20.7181H64.3887C64.3726 20.7873 64.343 20.8988 64.2995 21.0525C64.256 21.2062 64.2081 21.3696 64.1563 21.5427C64.1049 21.7154 64.0575 21.8792 64.014 22.0329C63.9705 22.187 63.937 22.2981 63.913 22.3673C63.8495 22.5903 63.7407 22.7938 63.5862 22.9787C63.4317 23.1633 63.2355 23.2979 62.9979 23.3824V23.417V23.4162ZM56.1525 23.3587C56.3662 23.428 56.5385 23.5184 56.6695 23.6298C56.8001 23.7413 56.901 23.8608 56.9724 23.9875C57.0438 24.1141 57.0916 24.2433 57.1151 24.3734C57.1391 24.5043 57.1508 24.6272 57.1508 24.7428C57.1508 25.2728 56.9546 25.6844 56.5625 25.9766C56.1704 26.2684 55.6612 26.4145 55.0354 26.4145H50.9113V20.7181H55.0237C55.5942 20.7181 56.0533 20.8393 56.4023 21.0812C56.7509 21.3236 56.9254 21.6905 56.9254 22.1824C56.9254 22.3745 56.8719 22.5785 56.7648 22.7938C56.6578 23.0091 56.4541 23.1823 56.153 23.3127V23.3587H56.1525ZM53.1933 22.0211V22.9433H54.172C54.313 22.9433 54.4314 22.9086 54.5258 22.8381C54.6198 22.768 54.6673 22.6549 54.6673 22.4995C54.6673 22.3593 54.6198 22.2449 54.5258 22.1549C54.4314 22.0654 54.3056 22.0207 54.1485 22.0207H53.1938L53.1933 22.0211ZM53.1933 24.0736V25.0882H54.2199C54.424 25.0882 54.5754 25.0401 54.6742 24.9443C54.7726 24.848 54.8218 24.7234 54.8218 24.5693C54.8218 24.4232 54.7782 24.3041 54.6916 24.2121C54.605 24.12 54.4519 24.0736 54.2317 24.0736H53.1933ZM49.3072 24.9958H50.0439C50.0596 25.1959 50.0757 25.3977 50.0914 25.6013C50.1071 25.8048 50.1232 26.0108 50.1388 26.2181C49.9169 26.3182 49.6519 26.3989 49.3424 26.4605C49.0335 26.5217 48.7123 26.5526 48.3798 26.5526C48.1105 26.5526 47.8746 26.5082 47.6727 26.42C47.4708 26.3317 47.3459 26.1531 47.298 25.8837C47.298 25.8913 47.2862 25.8837 47.2623 25.8605C47.0721 26.0298 46.8737 26.1603 46.6679 26.2528C46.462 26.3448 46.2657 26.4141 46.0795 26.4601C45.8932 26.5061 45.727 26.5331 45.5803 26.5407C45.4333 26.5483 45.3205 26.5521 45.2413 26.5521C44.8527 26.5521 44.5359 26.4964 44.2909 26.3849C44.045 26.2735 43.851 26.1333 43.7082 25.964C43.5659 25.7951 43.4667 25.6122 43.4114 25.4159C43.3562 25.22 43.3283 25.0376 43.3283 24.8682C43.3283 24.6761 43.3562 24.4899 43.4114 24.3088C43.4667 24.1285 43.5598 23.9613 43.6908 23.8072C43.8214 23.6535 43.992 23.523 44.2017 23.4149C44.4115 23.3072 44.6673 23.2304 44.9685 23.1844C45.2696 23.1307 45.6182 23.0923 46.0147 23.0691C46.4107 23.0459 46.791 23.0155 47.1557 22.977V22.8846C47.1557 22.6388 47.0865 22.4543 46.9477 22.331C46.8093 22.2082 46.5573 22.1465 46.1931 22.1465C46.0508 22.1465 45.8959 22.1524 45.7292 22.1638C45.5629 22.1752 45.3963 22.1925 45.23 22.2158C45.0638 22.2386 44.8989 22.2673 44.7365 22.3023C44.5738 22.3369 44.4293 22.3732 44.3027 22.4121L43.9698 21.0744C44.1438 21.0052 44.3462 20.9402 44.576 20.8785C44.8057 20.8173 45.0412 20.7654 45.2831 20.7231C45.5246 20.6809 45.7705 20.6484 46.0199 20.6252C46.2697 20.602 46.509 20.5906 46.7388 20.5906C47.1196 20.5906 47.4677 20.6252 47.7845 20.6944C48.1013 20.7637 48.3729 20.8789 48.5987 21.0402C48.8246 21.2015 48.9987 21.4131 49.1214 21.6744C49.2441 21.9358 49.3059 22.2588 49.3059 22.6431V24.9953L49.3072 24.9958ZM47.1439 23.9929C46.9694 24.0162 46.7954 24.0331 46.6213 24.0449C46.4468 24.0567 46.2884 24.0795 46.1456 24.1141C46.0029 24.1488 45.888 24.2045 45.801 24.2813C45.7135 24.3582 45.6704 24.4739 45.6704 24.6276C45.6861 24.8349 45.7379 24.9848 45.8249 25.0768C45.9119 25.1693 46.0547 25.2153 46.2527 25.2153C46.3715 25.2153 46.5182 25.1883 46.6927 25.1347C46.8667 25.0811 47.0173 25.0004 47.1439 24.8927V23.9934V23.9929ZM39.0505 22.1478H37.1018V20.7063H43.2939V22.1478H41.3448L41.333 26.4145H39.0627L39.051 22.1478H39.0505ZM33.643 23.5779C33.643 24.0162 33.7283 24.3371 33.8985 24.5406C34.0686 24.7445 34.3754 24.8459 34.8193 24.8459C35.0726 24.8459 35.3263 24.8231 35.58 24.7766C35.8337 24.7306 36.0752 24.677 36.305 24.6153C36.3681 24.8615 36.4316 25.1055 36.4952 25.3475C36.5587 25.5899 36.6218 25.8339 36.6853 26.0801C36.3524 26.2338 35.9799 26.3469 35.5678 26.42C35.1557 26.493 34.744 26.5298 34.3319 26.5298C33.7139 26.5298 33.2104 26.4508 32.8223 26.2933C32.4341 26.1358 32.129 25.9226 31.9071 25.6532C31.6852 25.3842 31.535 25.0747 31.4558 24.7247C31.3766 24.3751 31.3366 24.0077 31.3366 23.6235C31.3366 23.2621 31.3805 22.901 31.4676 22.5396C31.5546 22.1782 31.7113 21.8535 31.9371 21.5651C32.1625 21.2771 32.4754 21.0424 32.8758 20.8616C33.2757 20.6813 33.7892 20.5906 34.415 20.5906C34.6605 20.5906 34.9559 20.6079 35.3006 20.6425C35.6448 20.6771 35.9956 20.7481 36.352 20.8557L36.0669 22.3779C35.8372 22.3319 35.6196 22.301 35.4133 22.2858C35.2075 22.2706 35.0251 22.2626 34.8667 22.2626C34.4468 22.2626 34.1378 22.3766 33.9398 22.6029C33.7418 22.8301 33.643 23.1548 33.643 23.5775V23.5779ZM30.565 23.5547C30.565 23.9697 30.5054 24.3599 30.3866 24.7251C30.2678 25.0908 30.0776 25.4053 29.8161 25.6709C29.555 25.9361 29.216 26.1455 28.7999 26.2992C28.3839 26.4529 27.8791 26.5302 27.2846 26.5302C26.6902 26.5302 26.1871 26.4554 25.775 26.3051C25.3629 26.1552 25.03 25.9479 24.7767 25.6823C24.523 25.4172 24.3385 25.1039 24.224 24.7428C24.1092 24.3814 24.0517 23.9896 24.0517 23.5665C24.0517 23.1438 24.1113 22.752 24.2297 22.3906C24.3485 22.0291 24.5391 21.7158 24.8002 21.4511C25.0618 21.1859 25.4003 20.9761 25.8168 20.8224C26.2328 20.6687 26.7337 20.5918 27.3203 20.5918C27.9143 20.5918 28.4174 20.6687 28.8295 20.8224C29.2416 20.9761 29.5763 21.1859 29.8339 21.4511C30.0911 21.7162 30.2778 22.0295 30.3927 22.3906C30.5076 22.752 30.565 23.14 30.565 23.5551V23.5547ZM28.2238 23.5661C28.2238 23.3587 28.212 23.1666 28.1881 22.9897C28.1641 22.8132 28.1189 22.657 28.0514 22.5227C27.984 22.3884 27.8908 22.2846 27.772 22.2115C27.6532 22.1385 27.5027 22.1017 27.3208 22.1017C27.1384 22.1017 26.9861 22.1423 26.8634 22.2229C26.7402 22.3036 26.6432 22.4112 26.5718 22.5459C26.5005 22.6806 26.4508 22.836 26.4234 23.0129C26.3956 23.1899 26.3821 23.3744 26.3821 23.5665C26.3821 23.7899 26.3938 23.9917 26.4178 24.172C26.4417 24.3527 26.4891 24.5064 26.5605 24.6335C26.6319 24.7602 26.7289 24.8581 26.8516 24.9274C26.9744 24.9966 27.131 25.0312 27.3212 25.0312C27.5031 25.0312 27.6515 24.9949 27.7668 24.9214C27.8817 24.8484 27.9727 24.7488 28.0401 24.6221C28.1076 24.495 28.155 24.3413 28.1828 24.1606C28.2107 23.9803 28.2246 23.7823 28.2246 23.5665L28.2238 23.5661ZM16.0775 26.4145V28.5248H14.2824V24.8923L15.1262 24.8577C15.3717 24.5968 15.5719 24.3025 15.7263 23.9756C15.8808 23.6492 16.0057 23.2954 16.1006 22.915C16.1955 22.5341 16.2668 22.1292 16.3147 21.6981C16.3621 21.2678 16.4057 20.8101 16.4453 20.3258L16.588 18.4578H22.4233V24.8577L23.291 24.8923V28.5248H21.4964V26.4145H16.0771H16.0775ZM18.5019 20.6602C18.4545 21.1678 18.4088 21.6272 18.3653 22.0384C18.3217 22.4497 18.2643 22.8246 18.1929 23.1628C18.1216 23.501 18.0284 23.8084 17.9135 24.085C17.7987 24.362 17.6459 24.6196 17.4557 24.8577H20.1064V19.98H18.5611L18.5019 20.6602ZM64.3016 16.8111C64.111 16.7604 63.95 16.6806 63.8203 16.5713C63.6902 16.4619 63.5836 16.3374 63.5014 16.1984C63.4187 16.0595 63.3604 15.9105 63.326 15.7504C63.2912 15.5904 63.2738 15.4346 63.2738 15.283C63.2738 15.0474 63.3151 14.8076 63.3974 14.5631C63.4796 14.3191 63.6189 14.0978 63.8138 13.8998C64.0088 13.7022 64.2712 13.5421 64.6015 13.4197C64.9309 13.2977 65.3435 13.2369 65.8378 13.2369H69.9768V19.5008H67.5037V17.1768H66.8788C66.6272 17.1768 66.4231 17.2274 66.2673 17.3284C66.1111 17.4293 65.981 17.6273 65.877 17.9216L65.3043 19.5003H62.792L63.3778 17.9089C63.4474 17.6987 63.5471 17.4922 63.6772 17.2899C63.8073 17.0877 64.0197 16.9407 64.3151 16.8478L64.3021 16.8098L64.3016 16.8111ZM65.7725 15.226C65.7725 15.4811 65.8548 15.6635 66.0197 15.7741C66.1847 15.8847 66.3757 15.94 66.5924 15.94H67.5037V14.5255H66.5924C66.3409 14.5255 66.1411 14.5872 65.9936 14.7105C65.8461 14.8338 65.7725 15.006 65.7725 15.2264V15.226ZM61.3733 17.9478H62.1802C62.1976 18.1669 62.215 18.3877 62.2324 18.6107C62.2494 18.8341 62.2672 19.0591 62.2846 19.2863C62.0413 19.3956 61.7506 19.4843 61.4125 19.5514C61.0739 19.6186 60.7223 19.6523 60.3581 19.6523C60.063 19.6523 59.805 19.6038 59.5835 19.5071C59.362 19.4104 59.2253 19.2149 59.1731 18.9202C59.1731 18.9286 59.16 18.9202 59.1344 18.8949C58.9259 19.0802 58.7088 19.2234 58.4833 19.3243C58.2575 19.4256 58.0429 19.5012 57.8388 19.5519C57.6347 19.6021 57.4524 19.6317 57.2923 19.6401C57.1317 19.6485 57.0081 19.6528 56.9215 19.6528C56.4959 19.6528 56.149 19.5915 55.8801 19.4695C55.6112 19.3475 55.3984 19.1938 55.2421 19.0084C55.0859 18.8235 54.9775 18.6229 54.9171 18.4084C54.8561 18.1939 54.8257 17.9938 54.8257 17.8089C54.8257 17.5982 54.8561 17.3942 54.9171 17.1962C54.9775 16.9986 55.0798 16.8153 55.223 16.6469C55.3662 16.4784 55.5529 16.3352 55.7826 16.2174C56.0124 16.0996 56.2922 16.0152 56.6221 15.9645C56.9515 15.9058 57.3336 15.8636 57.7675 15.8383C58.2013 15.8134 58.6178 15.7796 59.0169 15.7374V15.636C59.0169 15.3666 58.9407 15.1648 58.7893 15.0297C58.6374 14.895 58.3619 14.8279 57.9629 14.8279C57.8066 14.8279 57.6378 14.8342 57.4554 14.8469C57.2735 14.8595 57.0908 14.8781 56.9089 14.9039C56.7265 14.9288 56.5464 14.9604 56.3684 14.9984C56.1904 15.0364 56.032 15.0766 55.8932 15.1188L55.5289 13.6536C55.7195 13.578 55.941 13.5063 56.193 13.4391C56.4445 13.3716 56.7026 13.315 56.9672 13.2685C57.2318 13.2225 57.5011 13.1866 57.7744 13.1613C58.0477 13.1355 58.3097 13.1233 58.5617 13.1233C58.9781 13.1233 59.3598 13.1613 59.7071 13.2373C60.0539 13.3129 60.3515 13.4395 60.5983 13.616C60.8459 13.793 61.0365 14.0243 61.171 14.3106C61.3055 14.5969 61.3729 14.9507 61.3729 15.3713V17.9478H61.3733ZM59.0042 16.8491C58.8132 16.8744 58.6222 16.893 58.4315 16.9061C58.2405 16.9188 58.0669 16.9437 57.9111 16.9817C57.7548 17.0193 57.6291 17.0809 57.5333 17.1649C57.4376 17.2494 57.3902 17.3756 57.3902 17.5441C57.4076 17.7713 57.4637 17.9351 57.5595 18.0364C57.6548 18.1374 57.811 18.188 58.0277 18.188C58.1578 18.188 58.3184 18.1589 58.5094 18.0998C58.7001 18.0411 58.865 17.9524 59.0042 17.8346V16.8495V16.8491ZM51.4287 19.5012V16.988H49.5283V19.5012H47.0291V13.2622H49.5283V15.4975H51.4287V13.2622H53.9275V19.5012H51.4287ZM43.3718 19.5012V17.3161C43.1029 17.4174 42.8013 17.4972 42.4671 17.5564C42.1333 17.6155 41.81 17.6446 41.4975 17.6446C40.7682 17.6446 40.202 17.4723 39.7986 17.1269C39.3947 16.782 39.1933 16.239 39.1933 15.4975V13.2622H41.6925V15.0934C41.6925 15.3544 41.7512 15.5524 41.8683 15.6871C41.9849 15.8218 42.1738 15.8894 42.4345 15.8894C42.5646 15.8894 42.7208 15.8767 42.9027 15.8514C43.085 15.826 43.2413 15.7842 43.3714 15.7251V13.2622H45.8706V19.5012H43.3714H43.3718ZM38.3869 16.369C38.3869 16.8234 38.3216 17.2511 38.1915 17.6509C38.0614 18.0508 37.8533 18.3962 37.567 18.6867C37.2807 18.9772 36.9094 19.2069 36.4543 19.3749C35.9986 19.5434 35.4455 19.6274 34.7945 19.6274C34.1439 19.6274 33.5925 19.5455 33.1417 19.3808C32.69 19.217 32.3257 18.9894 32.0481 18.6989C31.7704 18.4084 31.5685 18.0656 31.4432 17.6699C31.317 17.2743 31.2543 16.8449 31.2543 16.3817C31.2543 15.9185 31.3196 15.4895 31.4497 15.0934C31.5798 14.6978 31.7883 14.355 32.0746 14.0645C32.361 13.7735 32.7318 13.5447 33.1874 13.3762C33.643 13.2077 34.1918 13.1233 34.8341 13.1233C35.4847 13.1233 36.036 13.2077 36.4873 13.3762C36.9386 13.5447 37.3055 13.7735 37.5875 14.0645C37.8694 14.355 38.0735 14.6982 38.1989 15.0934C38.3246 15.4895 38.3877 15.9143 38.3877 16.369H38.3869ZM35.8228 16.3817C35.8228 16.1545 35.8098 15.9438 35.7841 15.75C35.7575 15.5562 35.7079 15.3861 35.6344 15.2387C35.5604 15.0913 35.4586 14.9778 35.3284 14.8975C35.1983 14.8173 35.0334 14.7776 34.8337 14.7776C34.6343 14.7776 34.4668 14.8215 34.3323 14.9102C34.1979 14.9984 34.0917 15.1167 34.0138 15.2636C33.9359 15.411 33.8815 15.5816 33.851 15.7749C33.8206 15.9687 33.8053 16.171 33.8053 16.3813C33.8053 16.6253 33.8184 16.8466 33.8441 17.0442C33.8702 17.2418 33.9224 17.4103 34.0003 17.5492C34.0782 17.6881 34.1844 17.7953 34.3188 17.8713C34.4533 17.9474 34.6248 17.9849 34.8328 17.9849C35.0325 17.9849 35.1949 17.9448 35.3211 17.865C35.4468 17.7852 35.5465 17.6759 35.6205 17.5369C35.6944 17.398 35.7462 17.2295 35.7767 17.0315C35.8067 16.8339 35.8219 16.6169 35.8219 16.3813L35.8228 16.3817Z" fill="#FEFEFE"/>
</svg>
