<svg xmlns="http://www.w3.org/2000/svg" width="30" height="30" viewBox="0 0 30 30"><defs><style>.a{fill:none;}.b{fill:#b5b5b5;}</style></defs><path class="a" d="M0,0H30V30H0Z"/><path class="b" d="M4.579,20V4.571H2V2H5.869a1.288,1.288,0,0,1,1.29,1.286V18.714H23.2L25.777,8.429H9.737V5.857H27.43a1.287,1.287,0,0,1,1.251,1.6L25.457,20.312a1.289,1.289,0,0,1-1.251.973H5.869A1.288,1.288,0,0,1,4.579,20Zm2.579,9a2.571,2.571,0,1,1,2.579-2.571A2.575,2.575,0,0,1,7.158,29Zm15.475,0a2.571,2.571,0,1,1,2.579-2.571A2.575,2.575,0,0,1,22.633,29Z"/></svg>