<svg id="Group_9" data-name="Group 9" xmlns="http://www.w3.org/2000/svg" width="18" height="18" viewBox="0 0 18 18">
  <path id="Path_49" data-name="Path 49" d="M0,0H18V18H0Z" fill="none"/>
  <path id="Path_50" data-name="Path 50" d="M3.5,6.5h12v9.75a.75.75,0,0,1-.75.75H4.25a.75.75,0,0,1-.75-.75ZM5,8v7.5h9V8ZM7.25,9.5h1.5V14H7.25Zm3,0h1.5V14h-1.5ZM5.75,4.25V2.75A.75.75,0,0,1,6.5,2h6a.75.75,0,0,1,.75.75v1.5H17v1.5H2V4.25Zm1.5-.75v.75h4.5V3.5Z" transform="translate(-0.5 -0.5)" fill="#fff"/>
</svg>
